<svg id="SvgjsSvg1014" width="5000" height="1929" xmlns="http://www.w3.org/2000/svg" version="1.1" xmlns:xlink="http://www.w3.org/1999/xlink" xmlns:svgjs="http://svgjs.com/svgjs" viewBox="0 0 513.25 198.046875"><defs id="SvgjsDefs1015"></defs><g id="SvgjsG1017" transform="rotate(0 50 50)"><svg height="100" viewBox="0 0 80 80" xmlns="http://www.w3.org/2000/svg" version="1.1" xmlns:xlink="http://www.w3.org/1999/xlink" xmlns:svgjs="http://svgjs.com/svgjs" preserveAspectRatio="none" width="100" x="0" y="0"><g><svg data-color="1" xmlns="http://www.w3.org/2000/svg" xmlns:xlink="http://www.w3.org/1999/xlink" version="1.1" x="0px" y="0px" viewBox="10 10 80 80" style="enable-background:new 0 0 100 100;" xml:space="preserve" width="80" height="80" fill="#8a3900"><path d="M88,10H12c-1.104,0-2,0.896-2,2v76c0,1.104,0.896,2,2,2h76c1.104,0,2-0.896,2-2V12C90,10.896,89.104,10,88,10z M86,66H75V14  h11V66z M71,30H60V14h11V30z M56,66H44V14h12V66z M40,30H29V14h11V30z M29,34h11v52H29V34z M44,70h12v16H44V70z M60,34h11v52H60V34z   M25,14v52H14V14H25z M14,70h11v16H14V70z M75,86V70h11v16H75z"></path></svg></g><defs id="SvgjsDefs1016"></defs></svg></g><g id="SvgjsG1019" transform="rotate(0 256.625 142.125)"><svg xmlns="http://www.w3.org/2000/svg" xmlns:xlink="http://www.w3.org/1999/xlink" width="513.25" viewBox="2.700000047683716 14.050000190734863 513.25 46.25" overflow="visible" style="overflow: visible;" transform="" version="1.1" xmlns:svgjs="http://svgjs.com/svgjs" preserveAspectRatio="none" height="46.25" x="0" y="119" fill="#000000" stroke="none"><path stroke="none" fill="#ffdf77" d="M15.35 15.60L15.35 15.60Q15.35 15.35 15.53 15.17L15.53 15.17L15.53 15.17Q15.70 15 15.95 15L15.95 15L20.55 15L20.55 15Q20.80 15 20.98 15.17L20.98 15.17L20.98 15.17Q21.15 15.35 21.15 15.60L21.15 15.60L21.15 49.40L21.15 49.40Q21.15 49.65 20.98 49.83L20.98 49.83L20.98 49.83Q20.80 50 20.55 50L20.55 50L15.95 50L15.95 50Q15.70 50 15.53 49.83L15.53 49.83L15.53 49.83Q15.35 49.65 15.35 49.40L15.35 49.40L15.35 35.25L15.35 35.25Q15.35 35 15.10 35L15.10 35L8.75 35L8.75 35Q8.50 35 8.50 35.25L8.50 35.25L8.50 49.40L8.50 49.40Q8.50 49.65 8.33 49.83L8.33 49.83L8.33 49.83Q8.15 50 7.90 50L7.90 50L3.30 50L3.30 50Q3.05 50 2.88 49.83L2.88 49.83L2.88 49.83Q2.70 49.65 2.70 49.40L2.70 49.40L2.70 15.60L2.70 15.60Q2.70 15.35 2.88 15.17L2.88 15.17L2.88 15.17Q3.05 15 3.30 15L3.30 15L7.90 15L7.90 15Q8.15 15 8.33 15.17L8.33 15.17L8.33 15.17Q8.50 15.35 8.50 15.60L8.50 15.60L8.50 29.70L8.50 29.70Q8.50 29.95 8.75 29.95L8.75 29.95L15.10 29.95L15.10 29.95Q15.35 29.95 15.35 29.70L15.35 29.70L15.35 15.60ZM40.40 50L40.40 50Q39.90 50 39.75 49.50L39.75 49.50L35.45 35.10L35.45 35.10Q35.35 34.90 35.20 34.90L35.20 34.90L32.60 34.90L32.60 34.90Q32.35 34.90 32.35 35.15L32.35 35.15L32.35 49.40L32.35 49.40Q32.35 49.65 32.18 49.83L32.18 49.83L32.18 49.83Q32 50 31.75 50L31.75 50L27.15 50L27.15 50Q26.90 50 26.73 49.83L26.73 49.83L26.73 49.83Q26.55 49.65 26.55 49.40L26.55 49.40L26.55 15.55L26.55 15.55Q26.55 15.30 26.73 15.13L26.73 15.13L26.73 15.13Q26.90 14.95 27.15 14.95L27.15 14.95L36.55 14.95L36.55 14.95Q39.20 14.95 41.23 16.23L41.23 16.23L41.23 16.23Q43.25 17.50 44.38 19.82L44.38 19.82L44.38 19.82Q45.50 22.15 45.50 25.15L45.50 25.15L45.50 25.15Q45.50 28.25 44.30 30.52L44.30 30.52L44.30 30.52Q43.10 32.80 40.95 33.95L40.95 33.95L40.95 33.95Q40.75 34 40.80 34.25L40.80 34.25L45.70 49.30L45.70 49.30Q45.75 49.40 45.75 49.55L45.75 49.55L45.75 49.55Q45.75 50 45.20 50L45.20 50L40.40 50ZM32.60 19.95L32.60 19.95Q32.35 19.95 32.35 20.20L32.35 20.20L32.35 30.15L32.35 30.15Q32.35 30.40 32.60 30.40L32.60 30.40L35.65 30.40L35.65 30.40Q37.45 30.40 38.58 29L38.58 29L38.58 29Q39.70 27.60 39.70 25.25L39.70 25.25L39.70 25.25Q39.70 22.80 38.58 21.38L38.58 21.38L38.58 21.38Q37.45 19.95 35.65 19.95L35.65 19.95L32.60 19.95ZM50.10 50L50.10 50Q49.85 50 49.68 49.83L49.68 49.83L49.68 49.83Q49.50 49.65 49.50 49.40L49.50 49.40L49.50 15.60L49.50 15.60Q49.50 15.35 49.68 15.17L49.68 15.17L49.68 15.17Q49.85 15 50.10 15L50.10 15L54.65 15L54.65 15Q55.15 15 55.35 15.45L55.35 15.45L60.15 26.25L60.15 26.25Q60.30 26.55 60.45 26.25L60.45 26.25L65.20 15.45L65.20 15.45Q65.40 15 65.90 15L65.90 15L70.50 15L70.50 15Q70.75 15 70.93 15.17L70.93 15.17L70.93 15.17Q71.10 15.35 71.10 15.60L71.10 15.60L71.10 49.40L71.10 49.40Q71.10 49.65 70.93 49.83L70.93 49.83L70.93 49.83Q70.75 50 70.50 50L70.50 50L65.90 50L65.90 50Q65.65 50 65.48 49.83L65.48 49.83L65.48 49.83Q65.30 49.65 65.30 49.40L65.30 49.40L65.30 27.60L65.30 27.60Q65.30 27.40 65.20 27.40L65.20 27.40L65.20 27.40Q65.10 27.40 65 27.55L65 27.55L60.70 36.30L60.70 36.30Q60.50 36.75 60.30 36.75L60.30 36.75L60.30 36.75Q60.15 36.75 59.90 36.30L59.90 36.30L55.60 27.45L55.60 27.45Q55.50 27.30 55.40 27.32L55.40 27.32L55.40 27.32Q55.30 27.35 55.30 27.55L55.30 27.55L55.30 49.40L55.30 49.40Q55.30 49.65 55.13 49.83L55.13 49.83L55.13 49.83Q54.95 50 54.70 50L54.70 50L50.10 50ZM105.45 40.40L105.45 40.40Q105.45 45 102.78 47.50L102.78 47.50L102.78 47.50Q100.10 50 95.80 50L95.80 50L87 50L87 50Q86.75 50 86.58 49.83L86.58 49.83L86.58 49.83Q86.40 49.65 86.40 49.40L86.40 49.40L86.40 15.60L86.40 15.60Q86.40 15.35 86.58 15.17L86.58 15.17L86.58 15.17Q86.75 15 87 15L87 15L94.90 15L94.90 15Q99.65 15 102.35 17.40L102.35 17.40L102.35 17.40Q105.05 19.80 105.05 24.40L105.05 24.40L105.05 24.40Q105.05 29.55 101.40 31.75L101.40 31.75L101.40 31.75Q101.15 31.90 101.30 32.05L101.30 32.05L101.30 32.05Q103.25 33.30 104.35 35.40L104.35 35.40L104.35 35.40Q105.45 37.50 105.45 40.40L105.45 40.40ZM92.45 20L92.45 20Q92.20 20 92.20 20.25L92.20 20.25L92.20 29.55L92.20 29.55Q92.20 29.80 92.45 29.80L92.45 29.80L95 29.80L95 29.80Q97.05 29.80 98.20 28.55L98.20 28.55L98.20 28.55Q99.35 27.30 99.35 25L99.35 25L99.35 25Q99.35 22.60 98.20 21.30L98.20 21.30L98.20 21.30Q97.05 20 95 20L95 20L92.45 20ZM95.35 44.95L95.35 44.95Q97.35 44.95 98.50 43.55L98.50 43.55L98.50 43.55Q99.65 42.15 99.65 39.60L99.65 39.60L99.65 39.60Q99.65 37 98.50 35.52L98.50 35.52L98.50 35.52Q97.35 34.05 95.35 34.05L95.35 34.05L92.45 34.05L92.45 34.05Q92.20 34.05 92.20 34.30L92.20 34.30L92.20 44.70L92.20 44.70Q92.20 44.95 92.45 44.95L92.45 44.95L95.35 44.95ZM120.65 25.05L120.65 25.05Q120.65 24.80 120.83 24.63L120.83 24.63L120.83 24.63Q121.00 24.45 121.25 24.45L121.25 24.45L125.85 24.45L125.85 24.45Q126.10 24.45 126.28 24.63L126.28 24.63L126.28 24.63Q126.45 24.80 126.45 25.05L126.45 25.05L126.45 49.40L126.45 49.40Q126.45 49.65 126.28 49.83L126.28 49.83L126.28 49.83Q126.10 50 125.85 50L125.85 50L121.25 50L121.25 50Q121.00 50 120.83 49.83L120.83 49.83L120.83 49.83Q120.65 49.65 120.65 49.40L120.65 49.40L120.65 48.30L120.65 48.30Q120.65 48.15 120.55 48.10L120.55 48.10L120.55 48.10Q120.45 48.05 120.35 48.20L120.35 48.20L120.35 48.20Q118.90 50.35 115.70 50.35L115.70 50.35L115.70 50.35Q112.65 50.35 110.78 48.52L110.78 48.52L110.78 48.52Q108.90 46.70 108.90 42.90L108.90 42.90L108.90 25.05L108.90 25.05Q108.90 24.80 109.08 24.63L109.08 24.63L109.08 24.63Q109.25 24.45 109.50 24.45L109.50 24.45L114.10 24.45L114.10 24.45Q114.35 24.45 114.53 24.63L114.53 24.63L114.53 24.63Q114.70 24.80 114.70 25.05L114.70 25.05L114.70 41.65L114.70 41.65Q114.70 45.40 117.60 45.40L117.60 45.40L117.60 45.40Q119.05 45.40 119.85 44.33L119.85 44.33L119.85 44.33Q120.65 43.25 120.65 41.40L120.65 41.40L120.65 25.05ZM134.15 21.25L134.15 21.25Q132.60 21.25 131.63 20.25L131.63 20.25L131.63 20.25Q130.65 19.25 130.65 17.65L130.65 17.65L130.65 17.65Q130.65 16.05 131.63 15.05L131.63 15.05L131.63 15.05Q132.60 14.05 134.15 14.05L134.15 14.05L134.15 14.05Q135.70 14.05 136.68 15.05L136.68 15.05L136.68 15.05Q137.65 16.05 137.65 17.65L137.65 17.65L137.65 17.65Q137.65 19.25 136.68 20.25L136.68 20.25L136.68 20.25Q135.70 21.25 134.15 21.25L134.15 21.25ZM131.85 50L131.85 50Q131.60 50 131.43 49.83L131.43 49.83L131.43 49.83Q131.25 49.65 131.25 49.40L131.25 49.40L131.25 25.05L131.25 25.05Q131.25 24.80 131.43 24.63L131.43 24.63L131.43 24.63Q131.60 24.45 131.85 24.45L131.85 24.45L136.45 24.45L136.45 24.45Q136.70 24.45 136.88 24.63L136.88 24.63L136.88 24.63Q137.05 24.80 137.05 25.05L137.05 25.05L137.05 49.40L137.05 49.40Q137.05 49.65 136.88 49.83L136.88 49.83L136.88 49.83Q136.70 50 136.45 50L136.45 50L131.85 50ZM142.30 50L142.30 50Q142.05 50 141.88 49.83L141.88 49.83L141.88 49.83Q141.70 49.65 141.70 49.40L141.70 49.40L141.70 15.60L141.70 15.60Q141.70 15.35 141.88 15.17L141.88 15.17L141.88 15.17Q142.05 15 142.30 15L142.30 15L146.90 15L146.90 15Q147.15 15 147.33 15.17L147.33 15.17L147.33 15.17Q147.50 15.35 147.50 15.60L147.50 15.60L147.50 49.40L147.50 49.40Q147.50 49.65 147.33 49.83L147.33 49.83L147.33 49.83Q147.15 50 146.90 50L146.90 50L142.30 50ZM163.30 15.60L163.30 15.60Q163.30 15.35 163.48 15.17L163.48 15.17L163.48 15.17Q163.65 15 163.90 15L163.90 15L168.50 15L168.50 15Q168.75 15 168.93 15.17L168.93 15.17L168.93 15.17Q169.10 15.35 169.10 15.60L169.10 15.60L169.10 49.40L169.10 49.40Q169.10 49.65 168.93 49.83L168.93 49.83L168.93 49.83Q168.75 50 168.50 50L168.50 50L163.90 50L163.90 50Q163.65 50 163.48 49.83L163.48 49.83L163.48 49.83Q163.30 49.65 163.30 49.40L163.30 49.40L163.30 48.60L163.30 48.60Q163.30 48.45 163.20 48.42L163.20 48.42L163.20 48.42Q163.10 48.40 163 48.50L163 48.50L163 48.50Q161.25 50.40 158.40 50.40L158.40 50.40L158.40 50.40Q155.15 50.40 153.35 48.20L153.35 48.20L153.35 48.20Q151.55 46 151.45 42.30L151.45 42.30L151.45 32.10L151.45 32.10Q151.55 28.35 153.38 26.20L153.38 26.20L153.38 26.20Q155.20 24.05 158.40 24.05L158.40 24.05L158.40 24.05Q161.25 24.05 163 25.95L163 25.95L163 25.95Q163.10 26.05 163.20 26.02L163.20 26.02L163.20 26.02Q163.30 26 163.30 25.85L163.30 25.85L163.30 15.60ZM160.25 45.40L160.25 45.40Q161.60 45.40 162.45 44.40L162.45 44.40L162.45 44.40Q163.30 43.40 163.30 41.75L163.30 41.75L163.30 32.70L163.30 32.70Q163.30 31.05 162.45 30.05L162.45 30.05L162.45 30.05Q161.60 29.05 160.25 29.05L160.25 29.05L160.25 29.05Q158.90 29.05 158.05 30.05L158.05 30.05L158.05 30.05Q157.20 31.05 157.20 32.70L157.20 32.70L157.20 41.75L157.20 41.75Q157.20 43.35 158.05 44.38L158.05 44.38L158.05 44.38Q158.90 45.40 160.25 45.40L160.25 45.40ZM176.85 21.25L176.85 21.25Q175.30 21.25 174.33 20.25L174.33 20.25L174.33 20.25Q173.35 19.25 173.35 17.65L173.35 17.65L173.35 17.65Q173.35 16.05 174.33 15.05L174.33 15.05L174.33 15.05Q175.30 14.05 176.85 14.05L176.85 14.05L176.85 14.05Q178.40 14.05 179.38 15.05L179.38 15.05L179.38 15.05Q180.35 16.05 180.35 17.65L180.35 17.65L180.35 17.65Q180.35 19.25 179.38 20.25L179.38 20.25L179.38 20.25Q178.40 21.25 176.85 21.25L176.85 21.25ZM174.55 50L174.55 50Q174.30 50 174.13 49.83L174.13 49.83L174.13 49.83Q173.95 49.65 173.95 49.40L173.95 49.40L173.95 25.05L173.95 25.05Q173.95 24.80 174.13 24.63L174.13 24.63L174.13 24.63Q174.30 24.45 174.55 24.45L174.55 24.45L179.15 24.45L179.15 24.45Q179.40 24.45 179.58 24.63L179.58 24.63L179.58 24.63Q179.75 24.80 179.75 25.05L179.75 25.05L179.75 49.40L179.75 49.40Q179.75 49.65 179.58 49.83L179.58 49.83L179.58 49.83Q179.40 50 179.15 50L179.15 50L174.55 50ZM195.55 24.05L195.55 24.05Q198.80 24.05 200.48 26.22L200.48 26.22L200.48 26.22Q202.15 28.40 202.15 32.40L202.15 32.40L202.15 49.40L202.15 49.40Q202.15 49.65 201.98 49.83L201.98 49.83L201.98 49.83Q201.80 50 201.55 50L201.55 50L196.95 50L196.95 50Q196.70 50 196.53 49.83L196.53 49.83L196.53 49.83Q196.35 49.65 196.35 49.40L196.35 49.40L196.35 32.85L196.35 32.85Q196.35 31.05 195.60 30.05L195.60 30.05L195.60 30.05Q194.85 29.05 193.45 29.05L193.45 29.05L193.45 29.05Q192 29.05 191.20 30.10L191.20 30.10L191.20 30.10Q190.40 31.15 190.40 33L190.40 33L190.40 49.40L190.40 49.40Q190.40 49.65 190.23 49.83L190.23 49.83L190.23 49.83Q190.05 50 189.80 50L189.80 50L185.20 50L185.20 50Q184.95 50 184.78 49.83L184.78 49.83L184.78 49.83Q184.60 49.65 184.60 49.40L184.60 49.40L184.60 25.05L184.60 25.05Q184.60 24.80 184.78 24.63L184.78 24.63L184.78 24.63Q184.95 24.45 185.20 24.45L185.20 24.45L189.80 24.45L189.80 24.45Q190.05 24.45 190.23 24.63L190.23 24.63L190.23 24.63Q190.40 24.80 190.40 25.05L190.40 25.05L190.40 26.05L190.40 26.05Q190.40 26.20 190.53 26.22L190.53 26.22L190.53 26.22Q190.65 26.25 190.80 26.05L190.80 26.05L190.80 26.05Q192.50 24.05 195.55 24.05L195.55 24.05ZM218 25.05L218 25.05Q218 24.80 218.18 24.63L218.18 24.63L218.18 24.63Q218.35 24.45 218.60 24.45L218.60 24.45L223.20 24.45L223.20 24.45Q223.45 24.45 223.63 24.63L223.63 24.63L223.63 24.63Q223.80 24.80 223.80 25.05L223.80 25.05L223.80 49.05L223.80 49.05Q223.80 54.45 221.35 57.38L221.35 57.38L221.35 57.38Q218.90 60.30 212.60 60.30L212.60 60.30L212.60 60.30Q211.50 60.30 210.95 60.25L210.95 60.25L210.95 60.25Q210.35 60.20 210.35 59.60L210.35 59.60L210.35 55.75L210.35 55.75Q210.35 55.10 211 55.20L211 55.20L211 55.20Q213.85 55.25 215.38 54.50L215.38 54.50L215.38 54.50Q216.90 53.75 217.45 52.30L217.45 52.30L217.45 52.30Q218 50.85 218 48.50L218 48.50L218 47.95L218 47.95Q218 47.80 217.90 47.77L217.90 47.77L217.90 47.77Q217.80 47.75 217.70 47.90L217.70 47.90L217.70 47.90Q216.05 50.05 213 50.05L213 50.05L213 50.05Q209.65 50.05 207.90 47.88L207.90 47.88L207.90 47.88Q206.15 45.70 206.15 41.95L206.15 41.95L206.15 32.15L206.15 32.15Q206.15 28.30 207.93 26.17L207.93 26.17L207.93 26.17Q209.70 24.05 213 24.05L213 24.05L213 24.05Q216.05 24.05 217.70 26.20L217.70 26.20L217.70 26.20Q217.80 26.35 217.90 26.32L217.90 26.32L217.90 26.32Q218 26.30 218 26.15L218 26.15L218 25.05ZM215 45.05L215 45.05Q216.35 45.05 217.18 44.08L217.18 44.08L217.18 44.08Q218 43.10 218 41.55L218 41.55L218 32.60L218 32.60Q218 31 217.18 30.02L217.18 30.02L217.18 30.02Q216.35 29.05 215 29.05L215 29.05L215 29.05Q213.65 29.05 212.80 30.05L212.80 30.05L212.80 30.05Q211.95 31.05 211.95 32.60L211.95 32.60L211.95 41.55L211.95 41.55Q211.95 43.10 212.80 44.08L212.80 44.08L212.80 44.08Q213.65 45.05 215 45.05L215 45.05ZM246.70 24.05L246.70 24.05Q250.65 24.05 253.10 26.35L253.10 26.35L253.10 26.35Q255.55 28.65 255.55 32.40L255.55 32.40L255.55 49.40L255.55 49.40Q255.55 49.65 255.38 49.83L255.38 49.83L255.38 49.83Q255.20 50 254.95 50L254.95 50L250.35 50L250.35 50Q250.10 50 249.93 49.83L249.93 49.83L249.93 49.83Q249.75 49.65 249.75 49.40L249.75 49.40L249.75 48.50L249.75 48.50Q249.75 48.35 249.65 48.30L249.65 48.30L249.65 48.30Q249.55 48.25 249.45 48.40L249.45 48.40L249.45 48.40Q247.65 50.40 244.40 50.40L244.40 50.40L244.40 50.40Q241.55 50.40 239.38 48.77L239.38 48.77L239.38 48.77Q237.20 47.15 237.20 42.85L237.20 42.85L237.20 42.85Q237.20 38.35 239.83 36.45L239.83 36.45L239.83 36.45Q242.45 34.55 246.95 34.55L246.95 34.55L249.50 34.55L249.50 34.55Q249.75 34.55 249.75 34.30L249.75 34.30L249.75 33L249.75 33Q249.75 31.20 248.85 30.13L248.85 30.13L248.85 30.13Q247.95 29.05 246.60 29.05L246.60 29.05L246.60 29.05Q245.55 29.05 244.85 29.72L244.85 29.72L244.85 29.72Q244.15 30.40 244 31.55L244 31.55L244 31.55Q243.95 32.15 243.35 32.15L243.35 32.15L238.50 32.15L238.50 32.15Q237.90 32.15 237.95 31.55L237.95 31.55L237.95 31.55Q238.20 28.15 240.63 26.10L240.63 26.10L240.63 26.10Q243.05 24.05 246.70 24.05L246.70 24.05ZM246 45.60L246 45.60Q247.50 45.60 248.63 44.65L248.63 44.65L248.63 44.65Q249.75 43.70 249.75 42L249.75 42L249.75 39.15L249.75 39.15Q249.75 38.90 249.50 38.90L249.50 38.90L246.95 38.90L246.95 38.90Q245.20 38.90 244.18 39.83L244.18 39.83L244.18 39.83Q243.15 40.75 243.15 42.50L243.15 42.50L243.15 42.50Q243.15 44.05 243.95 44.83L243.95 44.83L243.95 44.83Q244.75 45.60 246 45.60L246 45.60ZM270.70 24.05L270.70 24.05Q273.95 24.05 275.63 26.22L275.63 26.22L275.63 26.22Q277.30 28.40 277.30 32.40L277.30 32.40L277.30 49.40L277.30 49.40Q277.30 49.65 277.13 49.83L277.13 49.83L277.13 49.83Q276.95 50 276.70 50L276.70 50L272.10 50L272.10 50Q271.85 50 271.68 49.83L271.68 49.83L271.68 49.83Q271.50 49.65 271.50 49.40L271.50 49.40L271.50 32.85L271.50 32.85Q271.50 31.05 270.75 30.05L270.75 30.05L270.75 30.05Q270 29.05 268.60 29.05L268.60 29.05L268.60 29.05Q267.15 29.05 266.35 30.10L266.35 30.10L266.35 30.10Q265.55 31.15 265.55 33L265.55 33L265.55 49.40L265.55 49.40Q265.55 49.65 265.38 49.83L265.38 49.83L265.38 49.83Q265.20 50 264.95 50L264.95 50L260.35 50L260.35 50Q260.10 50 259.93 49.83L259.93 49.83L259.93 49.83Q259.75 49.65 259.75 49.40L259.75 49.40L259.75 25.05L259.75 25.05Q259.75 24.80 259.93 24.63L259.93 24.63L259.93 24.63Q260.10 24.45 260.35 24.45L260.35 24.45L264.95 24.45L264.95 24.45Q265.20 24.45 265.38 24.63L265.38 24.63L265.38 24.63Q265.55 24.80 265.55 25.05L265.55 25.05L265.55 26.05L265.55 26.05Q265.55 26.20 265.68 26.22L265.68 26.22L265.68 26.22Q265.80 26.25 265.95 26.05L265.95 26.05L265.95 26.05Q267.65 24.05 270.70 24.05L270.70 24.05ZM293.15 15.60L293.15 15.60Q293.15 15.35 293.32 15.17L293.32 15.17L293.32 15.17Q293.50 15 293.75 15L293.75 15L298.35 15L298.35 15Q298.60 15 298.77 15.17L298.77 15.17L298.77 15.17Q298.95 15.35 298.95 15.60L298.95 15.60L298.95 49.40L298.95 49.40Q298.95 49.65 298.77 49.83L298.77 49.83L298.77 49.83Q298.60 50 298.35 50L298.35 50L293.75 50L293.75 50Q293.50 50 293.32 49.83L293.32 49.83L293.32 49.83Q293.15 49.65 293.15 49.40L293.15 49.40L293.15 48.60L293.15 48.60Q293.15 48.45 293.05 48.42L293.05 48.42L293.05 48.42Q292.95 48.40 292.85 48.50L292.85 48.50L292.85 48.50Q291.10 50.40 288.25 50.40L288.25 50.40L288.25 50.40Q285 50.40 283.20 48.20L283.20 48.20L283.20 48.20Q281.40 46 281.30 42.30L281.30 42.30L281.30 32.10L281.30 32.10Q281.40 28.35 283.22 26.20L283.22 26.20L283.22 26.20Q285.05 24.05 288.25 24.05L288.25 24.05L288.25 24.05Q291.10 24.05 292.85 25.95L292.85 25.95L292.85 25.95Q292.95 26.05 293.05 26.02L293.05 26.02L293.05 26.02Q293.15 26 293.15 25.85L293.15 25.85L293.15 15.60ZM290.10 45.40L290.10 45.40Q291.45 45.40 292.30 44.40L292.30 44.40L292.30 44.40Q293.15 43.40 293.15 41.75L293.15 41.75L293.15 32.70L293.15 32.70Q293.15 31.05 292.30 30.05L292.30 30.05L292.30 30.05Q291.45 29.05 290.10 29.05L290.10 29.05L290.10 29.05Q288.75 29.05 287.90 30.05L287.90 30.05L287.90 30.05Q287.05 31.05 287.05 32.70L287.05 32.70L287.05 41.75L287.05 41.75Q287.05 43.35 287.90 44.38L287.90 44.38L287.90 44.38Q288.75 45.40 290.10 45.40L290.10 45.40ZM327.80 50L327.80 50Q327.30 50 327.15 49.50L327.15 49.50L322.85 35.10L322.85 35.10Q322.75 34.90 322.60 34.90L322.60 34.90L320 34.90L320 34.90Q319.75 34.90 319.75 35.15L319.75 35.15L319.75 49.40L319.75 49.40Q319.75 49.65 319.57 49.83L319.57 49.83L319.57 49.83Q319.40 50 319.15 50L319.15 50L314.55 50L314.55 50Q314.30 50 314.13 49.83L314.13 49.83L314.13 49.83Q313.95 49.65 313.95 49.40L313.95 49.40L313.95 15.55L313.95 15.55Q313.95 15.30 314.13 15.13L314.13 15.13L314.13 15.13Q314.30 14.95 314.55 14.95L314.55 14.95L323.95 14.95L323.95 14.95Q326.60 14.95 328.63 16.23L328.63 16.23L328.63 16.23Q330.65 17.50 331.77 19.82L331.77 19.82L331.77 19.82Q332.90 22.15 332.90 25.15L332.90 25.15L332.90 25.15Q332.90 28.25 331.70 30.52L331.70 30.52L331.70 30.52Q330.50 32.80 328.35 33.95L328.35 33.95L328.35 33.95Q328.15 34 328.20 34.25L328.20 34.25L333.10 49.30L333.10 49.30Q333.15 49.40 333.15 49.55L333.15 49.55L333.15 49.55Q333.15 50 332.60 50L332.60 50L327.80 50ZM320 19.95L320 19.95Q319.75 19.95 319.75 20.20L319.75 20.20L319.75 30.15L319.75 30.15Q319.75 30.40 320 30.40L320 30.40L323.05 30.40L323.05 30.40Q324.85 30.40 325.98 29L325.98 29L325.98 29Q327.10 27.60 327.10 25.25L327.10 25.25L327.10 25.25Q327.10 22.80 325.98 21.38L325.98 21.38L325.98 21.38Q324.85 19.95 323.05 19.95L323.05 19.95L320 19.95ZM353.95 38.80L353.95 38.80Q353.95 39.05 353.78 39.23L353.78 39.23L353.78 39.23Q353.60 39.40 353.35 39.40L353.35 39.40L342.25 39.40L342.25 39.40Q342 39.40 342 39.65L342 39.65L342 41.85L342 41.85Q342 43.45 342.85 44.45L342.85 44.45L342.85 44.45Q343.70 45.45 345.05 45.45L345.05 45.45L345.05 45.45Q346.20 45.45 347 44.70L347 44.70L347 44.70Q347.80 43.95 348.10 42.80L348.10 42.80L348.10 42.80Q348.25 42.25 348.75 42.30L348.75 42.30L353.25 42.60L353.25 42.60Q353.85 42.70 353.80 43.25L353.80 43.25L353.80 43.25Q353.40 46.65 351.18 48.52L351.18 48.52L351.18 48.52Q348.95 50.40 345.05 50.40L345.05 50.40L345.05 50.40Q340.95 50.40 338.57 48.23L338.57 48.23L338.57 48.23Q336.20 46.05 336.20 42.30L336.20 42.30L336.20 32.15L336.20 32.15Q336.20 28.50 338.57 26.27L338.57 26.27L338.57 26.27Q340.95 24.05 345.05 24.05L345.05 24.05L345.05 24.05Q349.15 24.05 351.55 26.27L351.55 26.27L351.55 26.27Q353.95 28.50 353.95 32.15L353.95 32.15L353.95 38.80ZM345.05 29.05L345.05 29.05Q343.70 29.05 342.85 30.05L342.85 30.05L342.85 30.05Q342 31.05 342 32.60L342 32.60L342 34.80L342 34.80Q342 35.05 342.25 35.05L342.25 35.05L347.90 35.05L347.90 35.05Q348.15 35.05 348.15 34.80L348.15 34.80L348.15 32.60L348.15 32.60Q348.15 31 347.30 30.02L347.30 30.02L347.30 30.02Q346.45 29.05 345.05 29.05L345.05 29.05ZM380.15 24.05L380.15 24.05Q383.40 24.05 385.08 26.32L385.08 26.32L385.08 26.32Q386.75 28.60 386.75 32.65L386.75 32.65L386.75 49.40L386.75 49.40Q386.75 49.65 386.58 49.83L386.58 49.83L386.58 49.83Q386.40 50 386.15 50L386.15 50L381.60 50L381.60 50Q381.35 50 381.18 49.83L381.18 49.83L381.18 49.83Q381 49.65 381 49.40L381 49.40L381 33.05L381 33.05Q381 31.15 380.25 30.10L380.25 30.10L380.25 30.10Q379.50 29.05 378.20 29.05L378.20 29.05L378.20 29.05Q376.80 29.05 376 30.10L376 30.10L376 30.10Q375.20 31.15 375.20 33L375.20 33L375.20 49.40L375.20 49.40Q375.20 49.65 375.03 49.83L375.03 49.83L375.03 49.83Q374.85 50 374.60 50L374.60 50L370.05 50L370.05 50Q369.80 50 369.63 49.83L369.63 49.83L369.63 49.83Q369.45 49.65 369.45 49.40L369.45 49.40L369.45 33.05L369.45 33.05Q369.45 31.15 368.68 30.10L368.68 30.10L368.68 30.10Q367.90 29.05 366.65 29.05L366.65 29.05L366.65 29.05Q365.25 29.05 364.45 30.10L364.45 30.10L364.45 30.10Q363.65 31.15 363.65 33L363.65 33L363.65 49.40L363.65 49.40Q363.65 49.65 363.48 49.83L363.48 49.83L363.48 49.83Q363.30 50 363.05 50L363.05 50L358.50 50L358.50 50Q358.25 50 358.08 49.83L358.08 49.83L358.08 49.83Q357.90 49.65 357.90 49.40L357.90 49.40L357.90 25.05L357.90 25.05Q357.90 24.80 358.08 24.63L358.08 24.63L358.08 24.63Q358.25 24.45 358.50 24.45L358.50 24.45L363.05 24.45L363.05 24.45Q363.30 24.45 363.48 24.63L363.48 24.63L363.48 24.63Q363.65 24.80 363.65 25.05L363.65 25.05L363.65 25.85L363.65 25.85Q363.65 26 363.75 26.05L363.75 26.05L363.75 26.05Q363.85 26.10 363.95 25.95L363.95 25.95L363.95 25.95Q364.95 24.95 366.20 24.50L366.20 24.50L366.20 24.50Q367.45 24.05 368.65 24.05L368.65 24.05L368.65 24.05Q372.35 24.05 374.10 27.20L374.10 27.20L374.10 27.20Q374.25 27.40 374.55 27.05L374.55 27.05L374.55 27.05Q375.55 25.45 377.08 24.75L377.08 24.75L377.08 24.75Q378.60 24.05 380.15 24.05L380.15 24.05ZM399.65 50.40L399.65 50.40Q395.50 50.40 393.13 48.23L393.13 48.23L393.13 48.23Q390.75 46.05 390.75 42.30L390.75 42.30L390.75 32.15L390.75 32.15Q390.75 28.50 393.15 26.27L393.15 26.27L393.15 26.27Q395.55 24.05 399.65 24.05L399.65 24.05L399.65 24.05Q403.80 24.05 406.20 26.27L406.20 26.27L406.20 26.27Q408.60 28.50 408.60 32.15L408.60 32.15L408.60 42.30L408.60 42.30Q408.60 46.05 406.23 48.23L406.23 48.23L406.23 48.23Q403.85 50.40 399.65 50.40L399.65 50.40ZM399.65 45.40L399.65 45.40Q401.05 45.40 401.93 44.40L401.93 44.40L401.93 44.40Q402.80 43.40 402.80 41.85L402.80 41.85L402.80 32.60L402.80 32.60Q402.80 31.05 401.93 30.05L401.93 30.05L401.93 30.05Q401.05 29.05 399.65 29.05L399.65 29.05L399.65 29.05Q398.25 29.05 397.40 30.02L397.40 30.02L397.40 30.02Q396.55 31 396.55 32.60L396.55 32.60L396.55 41.85L396.55 41.85Q396.55 43.45 397.40 44.42L397.40 44.42L397.40 44.42Q398.25 45.40 399.65 45.40L399.65 45.40ZM424.20 15.60L424.20 15.60Q424.20 15.35 424.38 15.17L424.38 15.17L424.38 15.17Q424.55 15 424.80 15L424.80 15L429.40 15L429.40 15Q429.65 15 429.83 15.17L429.83 15.17L429.83 15.17Q430.00 15.35 430.00 15.60L430.00 15.60L430.00 49.40L430.00 49.40Q430.00 49.65 429.83 49.83L429.83 49.83L429.83 49.83Q429.65 50 429.40 50L429.40 50L424.80 50L424.80 50Q424.55 50 424.38 49.83L424.38 49.83L424.38 49.83Q424.20 49.65 424.20 49.40L424.20 49.40L424.20 48.60L424.20 48.60Q424.20 48.45 424.10 48.42L424.10 48.42L424.10 48.42Q424.00 48.40 423.90 48.50L423.90 48.50L423.90 48.50Q422.15 50.40 419.30 50.40L419.30 50.40L419.30 50.40Q416.05 50.40 414.25 48.20L414.25 48.20L414.25 48.20Q412.45 46 412.35 42.30L412.35 42.30L412.35 32.10L412.35 32.10Q412.45 28.35 414.28 26.20L414.28 26.20L414.28 26.20Q416.10 24.05 419.30 24.05L419.30 24.05L419.30 24.05Q422.15 24.05 423.90 25.95L423.90 25.95L423.90 25.95Q424.00 26.05 424.10 26.02L424.10 26.02L424.10 26.02Q424.20 26 424.20 25.85L424.20 25.85L424.20 15.60ZM421.15 45.40L421.15 45.40Q422.50 45.40 423.35 44.40L423.35 44.40L423.35 44.40Q424.20 43.40 424.20 41.75L424.20 41.75L424.20 32.70L424.20 32.70Q424.20 31.05 423.35 30.05L423.35 30.05L423.35 30.05Q422.50 29.05 421.15 29.05L421.15 29.05L421.15 29.05Q419.80 29.05 418.95 30.05L418.95 30.05L418.95 30.05Q418.10 31.05 418.10 32.70L418.10 32.70L418.10 41.75L418.10 41.75Q418.10 43.35 418.95 44.38L418.95 44.38L418.95 44.38Q419.80 45.40 421.15 45.40L421.15 45.40ZM451.95 38.80L451.95 38.80Q451.95 39.05 451.78 39.23L451.78 39.23L451.78 39.23Q451.60 39.40 451.35 39.40L451.35 39.40L440.25 39.40L440.25 39.40Q440.00 39.40 440.00 39.65L440.00 39.65L440.00 41.85L440.00 41.85Q440.00 43.45 440.85 44.45L440.85 44.45L440.85 44.45Q441.70 45.45 443.05 45.45L443.05 45.45L443.05 45.45Q444.20 45.45 445.00 44.70L445.00 44.70L445.00 44.70Q445.80 43.95 446.10 42.80L446.10 42.80L446.10 42.80Q446.25 42.25 446.75 42.30L446.75 42.30L451.25 42.60L451.25 42.60Q451.85 42.70 451.80 43.25L451.80 43.25L451.80 43.25Q451.40 46.65 449.18 48.52L449.18 48.52L449.18 48.52Q446.95 50.40 443.05 50.40L443.05 50.40L443.05 50.40Q438.95 50.40 436.58 48.23L436.58 48.23L436.58 48.23Q434.20 46.05 434.20 42.30L434.20 42.30L434.20 32.15L434.20 32.15Q434.20 28.50 436.58 26.27L436.58 26.27L436.58 26.27Q438.95 24.05 443.05 24.05L443.05 24.05L443.05 24.05Q447.15 24.05 449.55 26.27L449.55 26.27L449.55 26.27Q451.95 28.50 451.95 32.15L451.95 32.15L451.95 38.80ZM443.05 29.05L443.05 29.05Q441.70 29.05 440.85 30.05L440.85 30.05L440.85 30.05Q440.00 31.05 440.00 32.60L440.00 32.60L440.00 34.80L440.00 34.80Q440.00 35.05 440.25 35.05L440.25 35.05L445.90 35.05L445.90 35.05Q446.15 35.05 446.15 34.80L446.15 34.80L446.15 32.60L446.15 32.60Q446.15 31 445.30 30.02L445.30 30.02L445.30 30.02Q444.45 29.05 443.05 29.05L443.05 29.05ZM456.30 50L456.30 50Q456.05 50 455.88 49.83L455.88 49.83L455.88 49.83Q455.70 49.65 455.70 49.40L455.70 49.40L455.70 15.60L455.70 15.60Q455.70 15.35 455.88 15.17L455.88 15.17L455.88 15.17Q456.05 15 456.30 15L456.30 15L460.90 15L460.90 15Q461.15 15 461.33 15.17L461.33 15.17L461.33 15.17Q461.50 15.35 461.50 15.60L461.50 15.60L461.50 49.40L461.50 49.40Q461.50 49.65 461.33 49.83L461.33 49.83L461.33 49.83Q461.15 50 460.90 50L460.90 50L456.30 50ZM469.00 21.25L469.00 21.25Q467.45 21.25 466.48 20.25L466.48 20.25L466.48 20.25Q465.50 19.25 465.50 17.65L465.50 17.65L465.50 17.65Q465.50 16.05 466.48 15.05L466.48 15.05L466.48 15.05Q467.45 14.05 469.00 14.05L469.00 14.05L469.00 14.05Q470.55 14.05 471.53 15.05L471.53 15.05L471.53 15.05Q472.50 16.05 472.50 17.65L472.50 17.65L472.50 17.65Q472.50 19.25 471.53 20.25L471.53 20.25L471.53 20.25Q470.55 21.25 469.00 21.25L469.00 21.25ZM466.70 50L466.70 50Q466.45 50 466.28 49.83L466.28 49.83L466.28 49.83Q466.10 49.65 466.10 49.40L466.10 49.40L466.10 25.05L466.10 25.05Q466.10 24.80 466.28 24.63L466.28 24.63L466.28 24.63Q466.45 24.45 466.70 24.45L466.70 24.45L471.30 24.45L471.30 24.45Q471.55 24.45 471.73 24.63L471.73 24.63L471.73 24.63Q471.90 24.80 471.90 25.05L471.90 25.05L471.90 49.40L471.90 49.40Q471.90 49.65 471.73 49.83L471.73 49.83L471.73 49.83Q471.55 50 471.30 50L471.30 50L466.70 50ZM487.70 24.05L487.70 24.05Q490.95 24.05 492.63 26.22L492.63 26.22L492.63 26.22Q494.30 28.40 494.30 32.40L494.30 32.40L494.30 49.40L494.30 49.40Q494.30 49.65 494.13 49.83L494.13 49.83L494.13 49.83Q493.95 50 493.70 50L493.70 50L489.10 50L489.10 50Q488.85 50 488.68 49.83L488.68 49.83L488.68 49.83Q488.50 49.65 488.50 49.40L488.50 49.40L488.50 32.85L488.50 32.85Q488.50 31.05 487.75 30.05L487.75 30.05L487.75 30.05Q487.00 29.05 485.60 29.05L485.60 29.05L485.60 29.05Q484.15 29.05 483.35 30.10L483.35 30.10L483.35 30.10Q482.55 31.15 482.55 33L482.55 33L482.55 49.40L482.55 49.40Q482.55 49.65 482.38 49.83L482.38 49.83L482.38 49.83Q482.20 50 481.95 50L481.95 50L477.35 50L477.35 50Q477.10 50 476.93 49.83L476.93 49.83L476.93 49.83Q476.75 49.65 476.75 49.40L476.75 49.40L476.75 25.05L476.75 25.05Q476.75 24.80 476.93 24.63L476.93 24.63L476.93 24.63Q477.10 24.45 477.35 24.45L477.35 24.45L481.95 24.45L481.95 24.45Q482.20 24.45 482.38 24.63L482.38 24.63L482.38 24.63Q482.55 24.80 482.55 25.05L482.55 25.05L482.55 26.05L482.55 26.05Q482.55 26.20 482.68 26.22L482.68 26.22L482.68 26.22Q482.80 26.25 482.95 26.05L482.95 26.05L482.95 26.05Q484.65 24.05 487.70 24.05L487.70 24.05ZM510.15 25.05L510.15 25.05Q510.15 24.80 510.33 24.63L510.33 24.63L510.33 24.63Q510.50 24.45 510.75 24.45L510.75 24.45L515.35 24.45L515.35 24.45Q515.60 24.45 515.78 24.63L515.78 24.63L515.78 24.63Q515.95 24.80 515.95 25.05L515.95 25.05L515.95 49.05L515.95 49.05Q515.95 54.45 513.50 57.38L513.50 57.38L513.50 57.38Q511.05 60.30 504.75 60.30L504.75 60.30L504.75 60.30Q503.65 60.30 503.10 60.25L503.10 60.25L503.10 60.25Q502.50 60.20 502.50 59.60L502.50 59.60L502.50 55.75L502.50 55.75Q502.50 55.10 503.15 55.20L503.15 55.20L503.15 55.20Q506.00 55.25 507.53 54.50L507.53 54.50L507.53 54.50Q509.05 53.75 509.60 52.30L509.60 52.30L509.60 52.30Q510.15 50.85 510.15 48.50L510.15 48.50L510.15 47.95L510.15 47.95Q510.15 47.80 510.05 47.77L510.05 47.77L510.05 47.77Q509.95 47.75 509.85 47.90L509.85 47.90L509.85 47.90Q508.20 50.05 505.15 50.05L505.15 50.05L505.15 50.05Q501.80 50.05 500.05 47.88L500.05 47.88L500.05 47.88Q498.30 45.70 498.30 41.95L498.30 41.95L498.30 32.15L498.30 32.15Q498.30 28.30 500.08 26.17L500.08 26.17L500.08 26.17Q501.85 24.05 505.15 24.05L505.15 24.05L505.15 24.05Q508.20 24.05 509.85 26.20L509.85 26.20L509.85 26.20Q509.95 26.35 510.05 26.32L510.05 26.32L510.05 26.32Q510.15 26.30 510.15 26.15L510.15 26.15L510.15 25.05ZM507.15 45.05L507.15 45.05Q508.50 45.05 509.33 44.08L509.33 44.08L509.33 44.08Q510.15 43.10 510.15 41.55L510.15 41.55L510.15 32.60L510.15 32.60Q510.15 31 509.33 30.02L509.33 30.02L509.33 30.02Q508.50 29.05 507.15 29.05L507.15 29.05L507.15 29.05Q505.80 29.05 504.95 30.05L504.95 30.05L504.95 30.05Q504.10 31.05 504.10 32.60L504.10 32.60L504.10 41.55L504.10 41.55Q504.10 43.10 504.95 44.08L504.95 44.08L504.95 44.08Q505.80 45.05 507.15 45.05L507.15 45.05Z" transform="rotate(0 259.3250000476837 37.17500019073486)"></path><defs id="SvgjsDefs1018"></defs></svg></g><g id="SvgjsG1021" transform="rotate(0 149.390625 187.6484375)"><svg xmlns="http://www.w3.org/2000/svg" xmlns:xlink="http://www.w3.org/1999/xlink" width="298.78125" viewBox="0.8600000143051147 4.5 298.7900085449219 14.799999237060547" overflow="visible" style="overflow: visible;" transform="" version="1.1" xmlns:svgjs="http://svgjs.com/svgjs" preserveAspectRatio="none" height="14.796875" x="0" y="180.25" fill="#000000" stroke="none"><path stroke="none" fill="#ffdf77" d="M4.91 4.99L4.91 4.99Q4.91 4.91 4.97 4.86L4.97 4.86L4.97 4.86Q5.02 4.80 5.10 4.80L5.10 4.80L6.58 4.80L6.58 4.80Q6.66 4.80 6.71 4.86L6.71 4.86L6.71 4.86Q6.77 4.91 6.77 4.99L6.77 4.99L6.77 15.81L6.77 15.81Q6.77 15.89 6.71 15.94L6.71 15.94L6.71 15.94Q6.66 16 6.58 16L6.58 16L5.10 16L5.10 16Q5.02 16 4.97 15.94L4.97 15.94L4.97 15.94Q4.91 15.89 4.91 15.81L4.91 15.81L4.91 11.28L4.91 11.28Q4.91 11.20 4.83 11.20L4.83 11.20L2.80 11.20L2.80 11.20Q2.72 11.20 2.72 11.28L2.72 11.28L2.72 15.81L2.72 15.81Q2.72 15.89 2.66 15.94L2.66 15.94L2.66 15.94Q2.61 16 2.53 16L2.53 16L1.06 16L1.06 16Q0.98 16 0.92 15.94L0.92 15.94L0.92 15.94Q0.86 15.89 0.86 15.81L0.86 15.81L0.86 4.99L0.86 4.99Q0.86 4.91 0.92 4.86L0.92 4.86L0.92 4.86Q0.98 4.80 1.06 4.80L1.06 4.80L2.53 4.80L2.53 4.80Q2.61 4.80 2.66 4.86L2.66 4.86L2.66 4.86Q2.72 4.91 2.72 4.99L2.72 4.99L2.72 9.50L2.72 9.50Q2.72 9.58 2.80 9.58L2.80 9.58L4.83 9.58L4.83 9.58Q4.91 9.58 4.91 9.50L4.91 9.50L4.91 4.99ZM12.09 16.13L12.09 16.13Q10.76 16.13 10.00 15.43L10.00 15.43L10.00 15.43Q9.24 14.74 9.24 13.54L9.24 13.54L9.24 10.29L9.24 10.29Q9.24 9.12 10.01 8.41L10.01 8.41L10.01 8.41Q10.78 7.70 12.09 7.70L12.09 7.70L12.09 7.70Q13.42 7.70 14.18 8.41L14.18 8.41L14.18 8.41Q14.95 9.12 14.95 10.29L14.95 10.29L14.95 13.54L14.95 13.54Q14.95 14.74 14.19 15.43L14.19 15.43L14.19 15.43Q13.43 16.13 12.09 16.13L12.09 16.13ZM12.09 14.53L12.09 14.53Q12.54 14.53 12.82 14.21L12.82 14.21L12.82 14.21Q13.10 13.89 13.10 13.39L13.10 13.39L13.10 10.43L13.10 10.43Q13.10 9.94 12.82 9.62L12.82 9.62L12.82 9.62Q12.54 9.30 12.09 9.30L12.09 9.30L12.09 9.30Q11.64 9.30 11.37 9.61L11.37 9.61L11.37 9.61Q11.10 9.92 11.10 10.43L11.10 10.43L11.10 13.39L11.10 13.39Q11.10 13.90 11.37 14.22L11.37 14.22L11.37 14.22Q11.64 14.53 12.09 14.53L12.09 14.53ZM20.78 7.70L20.78 7.70Q21.82 7.70 22.36 8.39L22.36 8.39L22.36 8.39Q22.90 9.09 22.90 10.37L22.90 10.37L22.90 15.81L22.90 15.81Q22.90 15.89 22.84 15.94L22.84 15.94L22.84 15.94Q22.78 16 22.70 16L22.70 16L21.23 16L21.23 16Q21.15 16 21.10 15.94L21.10 15.94L21.10 15.94Q21.04 15.89 21.04 15.81L21.04 15.81L21.04 10.51L21.04 10.51Q21.04 9.94 20.80 9.62L20.80 9.62L20.80 9.62Q20.56 9.30 20.11 9.30L20.11 9.30L20.11 9.30Q19.65 9.30 19.39 9.63L19.39 9.63L19.39 9.63Q19.14 9.97 19.14 10.56L19.14 10.56L19.14 15.81L19.14 15.81Q19.14 15.89 19.08 15.94L19.08 15.94L19.08 15.94Q19.02 16 18.94 16L18.94 16L17.47 16L17.47 16Q17.39 16 17.34 15.94L17.34 15.94L17.34 15.94Q17.28 15.89 17.28 15.81L17.28 15.81L17.28 8.02L17.28 8.02Q17.28 7.94 17.34 7.88L17.34 7.88L17.34 7.88Q17.39 7.82 17.47 7.82L17.47 7.82L18.94 7.82L18.94 7.82Q19.02 7.82 19.08 7.88L19.08 7.88L19.08 7.88Q19.14 7.94 19.14 8.02L19.14 8.02L19.14 8.34L19.14 8.34Q19.14 8.38 19.18 8.39L19.18 8.39L19.18 8.39Q19.22 8.40 19.26 8.34L19.26 8.34L19.26 8.34Q19.81 7.70 20.78 7.70L20.78 7.70ZM30.86 12.42L30.86 12.42Q30.86 12.50 30.80 12.55L30.80 12.55L30.80 12.55Q30.74 12.61 30.66 12.61L30.66 12.61L27.11 12.61L27.11 12.61Q27.03 12.61 27.03 12.69L27.03 12.69L27.03 13.39L27.03 13.39Q27.03 13.90 27.30 14.22L27.30 14.22L27.30 14.22Q27.58 14.54 28.01 14.54L28.01 14.54L28.01 14.54Q28.38 14.54 28.63 14.30L28.63 14.30L28.63 14.30Q28.89 14.06 28.98 13.70L28.98 13.70L28.98 13.70Q29.03 13.52 29.19 13.54L29.19 13.54L30.63 13.63L30.63 13.63Q30.82 13.66 30.81 13.84L30.81 13.84L30.81 13.84Q30.68 14.93 29.97 15.53L29.97 15.53L29.97 15.53Q29.26 16.13 28.01 16.13L28.01 16.13L28.01 16.13Q26.70 16.13 25.94 15.43L25.94 15.43L25.94 15.43Q25.18 14.74 25.18 13.54L25.18 13.54L25.18 10.29L25.18 10.29Q25.18 9.12 25.94 8.41L25.94 8.41L25.94 8.41Q26.70 7.70 28.01 7.70L28.01 7.70L28.01 7.70Q29.32 7.70 30.09 8.41L30.09 8.41L30.09 8.41Q30.86 9.12 30.86 10.29L30.86 10.29L30.86 12.42ZM28.01 9.30L28.01 9.30Q27.58 9.30 27.30 9.62L27.30 9.62L27.30 9.62Q27.03 9.94 27.03 10.43L27.03 10.43L27.03 11.14L27.03 11.14Q27.03 11.22 27.11 11.22L27.11 11.22L28.92 11.22L28.92 11.22Q29 11.22 29 11.14L29 11.14L29 10.43L29 10.43Q29 9.92 28.73 9.61L28.73 9.61L28.73 9.61Q28.46 9.30 28.01 9.30L28.01 9.30ZM35.63 16.10L35.63 16.10Q34.37 16.10 33.62 15.49L33.62 15.49L33.62 15.49Q32.86 14.88 32.86 13.84L32.86 13.84L32.86 13.73L32.86 13.73Q32.86 13.65 32.92 13.59L32.92 13.59L32.92 13.59Q32.98 13.54 33.06 13.54L33.06 13.54L34.43 13.54L34.43 13.54Q34.62 13.54 34.62 13.66L34.62 13.66L34.62 13.81L34.62 13.81Q34.62 14.19 34.92 14.45L34.92 14.45L34.92 14.45Q35.22 14.70 35.65 14.70L35.65 14.70L35.65 14.70Q36.06 14.70 36.30 14.46L36.30 14.46L36.30 14.46Q36.54 14.22 36.54 13.86L36.54 13.86L36.54 13.86Q36.54 13.54 36.34 13.32L36.34 13.32L36.34 13.32Q36.13 13.10 35.89 12.99L35.89 12.99L35.89 12.99Q35.65 12.88 35.02 12.62L35.02 12.62L35.02 12.62Q34.11 12.27 33.53 11.73L33.53 11.73L33.53 11.73Q32.94 11.18 32.94 10.11L32.94 10.11L32.94 10.11Q32.94 8.99 33.66 8.36L33.66 8.36L33.66 8.36Q34.37 7.73 35.58 7.73L35.58 7.73L35.58 7.73Q36.83 7.73 37.56 8.39L37.56 8.39L37.56 8.39Q38.29 9.06 38.29 10.18L38.29 10.18L38.29 10.18Q38.29 10.26 38.23 10.31L38.23 10.31L38.23 10.31Q38.18 10.37 38.10 10.37L38.10 10.37L36.75 10.37L36.75 10.37Q36.67 10.37 36.62 10.33L36.62 10.33L36.62 10.33Q36.56 10.29 36.56 10.22L36.56 10.22L36.56 10.08L36.56 10.08Q36.56 9.70 36.30 9.44L36.30 9.44L36.30 9.44Q36.03 9.18 35.63 9.18L35.63 9.18L35.63 9.18Q35.22 9.18 34.97 9.45L34.97 9.45L34.97 9.45Q34.72 9.71 34.72 10.08L34.72 10.08L34.72 10.08Q34.72 10.38 34.91 10.59L34.91 10.59L34.91 10.59Q35.10 10.80 35.34 10.92L35.34 10.92L35.34 10.92Q35.58 11.04 36.14 11.28L36.14 11.28L36.14 11.28Q36.82 11.55 37.27 11.82L37.27 11.82L37.27 11.82Q37.73 12.08 38.07 12.57L38.07 12.57L38.07 12.57Q38.42 13.06 38.42 13.78L38.42 13.78L38.42 13.78Q38.42 14.85 37.66 15.47L37.66 15.47L37.66 15.47Q36.91 16.10 35.63 16.10L35.63 16.10ZM43.91 8.94L43.91 8.94Q43.91 9.02 43.86 9.08L43.86 9.08L43.86 9.08Q43.80 9.14 43.72 9.14L43.72 9.14L42.73 9.14L42.73 9.14Q42.65 9.14 42.65 9.22L42.65 9.22L42.65 13.41L42.65 13.41Q42.65 13.97 42.86 14.18L42.86 14.18L42.86 14.18Q43.06 14.40 43.48 14.38L43.48 14.38L43.59 14.38L43.59 14.38Q43.67 14.38 43.73 14.44L43.73 14.44L43.73 14.44Q43.78 14.50 43.78 14.58L43.78 14.58L43.78 15.81L43.78 15.81Q43.78 15.89 43.73 15.94L43.73 15.94L43.73 15.94Q43.67 16 43.59 16L43.59 16L43.05 16L43.05 16Q41.96 16 41.41 15.60L41.41 15.60L41.41 15.60Q40.86 15.20 40.86 14.10L40.86 14.10L40.86 9.22L40.86 9.22Q40.86 9.14 40.78 9.14L40.78 9.14L40.22 9.14L40.22 9.14Q40.14 9.14 40.08 9.08L40.08 9.08L40.08 9.08Q40.02 9.02 40.02 8.94L40.02 8.94L40.02 8.02L40.02 8.02Q40.02 7.94 40.08 7.88L40.08 7.88L40.08 7.88Q40.14 7.82 40.22 7.82L40.22 7.82L40.78 7.82L40.78 7.82Q40.86 7.82 40.86 7.74L40.86 7.74L40.86 5.98L40.86 5.98Q40.86 5.90 40.91 5.85L40.91 5.85L40.91 5.85Q40.97 5.79 41.05 5.79L41.05 5.79L42.46 5.79L42.46 5.79Q42.54 5.79 42.59 5.85L42.59 5.85L42.59 5.85Q42.65 5.90 42.65 5.98L42.65 5.98L42.65 7.74L42.65 7.74Q42.65 7.82 42.73 7.82L42.73 7.82L43.72 7.82L43.72 7.82Q43.80 7.82 43.86 7.88L43.86 7.88L43.86 7.88Q43.91 7.94 43.91 8.02L43.91 8.02L43.91 8.94ZM45.90 19.18L45.90 19.18Q45.81 19.18 45.81 18.99L45.81 18.99L45.81 17.84L45.81 17.84Q45.81 17.65 45.89 17.65L45.89 17.65L45.97 17.65L45.97 17.65Q46.50 17.65 46.80 17.52L46.80 17.52L46.80 17.52Q47.10 17.39 47.29 17.05L47.29 17.05L47.29 17.05Q47.47 16.70 47.55 16.05L47.55 16.05L47.54 15.95L45.52 8.03L45.52 7.97L45.52 7.97Q45.52 7.82 45.70 7.82L45.70 7.82L47.26 7.82L47.26 7.82Q47.46 7.82 47.47 8L47.47 8L48.45 13.28L48.45 13.28Q48.46 13.33 48.50 13.33L48.50 13.33L48.50 13.33Q48.53 13.33 48.54 13.28L48.54 13.28L49.49 8L49.49 8Q49.50 7.82 49.70 7.82L49.70 7.82L51.28 7.84L51.28 7.84Q51.50 7.84 51.46 8.05L51.46 8.05L49.31 16.45L49.31 16.45Q49.01 17.58 48.67 18.14L48.67 18.14L48.67 18.14Q48.34 18.70 47.73 18.94L47.73 18.94L47.73 18.94Q47.12 19.18 46 19.18L46 19.18L45.90 19.18ZM53.43 17.46L53.43 17.46Q53.34 17.46 53.28 17.40L53.28 17.40L53.28 17.40Q53.22 17.34 53.24 17.25L53.24 17.25L53.66 13.66L53.66 13.66Q53.67 13.49 53.85 13.49L53.85 13.49L55.13 13.49L55.13 13.49Q55.34 13.49 55.29 13.70L55.29 13.70L54.50 17.28L54.50 17.28Q54.47 17.46 54.30 17.46L54.30 17.46L53.43 17.46ZM62.15 16L62.15 16Q62.07 16 62.02 15.94L62.02 15.94L62.02 15.94Q61.96 15.89 61.96 15.81L61.96 15.81L61.96 4.99L61.96 4.99Q61.96 4.91 62.02 4.86L62.02 4.86L62.02 4.86Q62.07 4.80 62.15 4.80L62.15 4.80L63.62 4.80L63.62 4.80Q63.70 4.80 63.76 4.86L63.76 4.86L63.76 4.86Q63.82 4.91 63.82 4.99L63.82 4.99L63.82 15.81L63.82 15.81Q63.82 15.89 63.76 15.94L63.76 15.94L63.76 15.94Q63.70 16 63.62 16L63.62 16L62.15 16ZM69.92 7.70L69.92 7.70Q70.96 7.70 71.50 8.39L71.50 8.39L71.50 8.39Q72.03 9.09 72.03 10.37L72.03 10.37L72.03 15.81L72.03 15.81Q72.03 15.89 71.98 15.94L71.98 15.94L71.98 15.94Q71.92 16 71.84 16L71.84 16L70.37 16L70.37 16Q70.29 16 70.23 15.94L70.23 15.94L70.23 15.94Q70.18 15.89 70.18 15.81L70.18 15.81L70.18 10.51L70.18 10.51Q70.18 9.94 69.94 9.62L69.94 9.62L69.94 9.62Q69.70 9.30 69.25 9.30L69.25 9.30L69.25 9.30Q68.78 9.30 68.53 9.63L68.53 9.63L68.53 9.63Q68.27 9.97 68.27 10.56L68.27 10.56L68.27 15.81L68.27 15.81Q68.27 15.89 68.22 15.94L68.22 15.94L68.22 15.94Q68.16 16 68.08 16L68.08 16L66.61 16L66.61 16Q66.53 16 66.47 15.94L66.47 15.94L66.47 15.94Q66.42 15.89 66.42 15.81L66.42 15.81L66.42 8.02L66.42 8.02Q66.42 7.94 66.47 7.88L66.47 7.88L66.47 7.88Q66.53 7.82 66.61 7.82L66.61 7.82L68.08 7.82L68.08 7.82Q68.16 7.82 68.22 7.88L68.22 7.88L68.22 7.88Q68.27 7.94 68.27 8.02L68.27 8.02L68.27 8.34L68.27 8.34Q68.27 8.38 68.31 8.39L68.31 8.39L68.31 8.39Q68.35 8.40 68.40 8.34L68.40 8.34L68.40 8.34Q68.94 7.70 69.92 7.70L69.92 7.70ZM77.86 8.94L77.86 8.94Q77.86 9.02 77.81 9.08L77.81 9.08L77.81 9.08Q77.75 9.14 77.67 9.14L77.67 9.14L76.68 9.14L76.68 9.14Q76.60 9.14 76.60 9.22L76.60 9.22L76.60 13.41L76.60 13.41Q76.60 13.97 76.81 14.18L76.81 14.18L76.81 14.18Q77.02 14.40 77.43 14.38L77.43 14.38L77.54 14.38L77.54 14.38Q77.62 14.38 77.68 14.44L77.68 14.44L77.68 14.44Q77.74 14.50 77.74 14.58L77.74 14.58L77.74 15.81L77.74 15.81Q77.74 15.89 77.68 15.94L77.68 15.94L77.68 15.94Q77.62 16 77.54 16L77.54 16L77.00 16L77.00 16Q75.91 16 75.36 15.60L75.36 15.60L75.36 15.60Q74.81 15.20 74.81 14.10L74.81 14.10L74.81 9.22L74.81 9.22Q74.81 9.14 74.73 9.14L74.73 9.14L74.17 9.14L74.17 9.14Q74.09 9.14 74.03 9.08L74.03 9.08L74.03 9.08Q73.98 9.02 73.98 8.94L73.98 8.94L73.98 8.02L73.98 8.02Q73.98 7.94 74.03 7.88L74.03 7.88L74.03 7.88Q74.09 7.82 74.17 7.82L74.17 7.82L74.73 7.82L74.73 7.82Q74.81 7.82 74.81 7.74L74.81 7.74L74.81 5.98L74.81 5.98Q74.81 5.90 74.86 5.85L74.86 5.85L74.86 5.85Q74.92 5.79 75.00 5.79L75.00 5.79L76.41 5.79L76.41 5.79Q76.49 5.79 76.54 5.85L76.54 5.85L76.54 5.85Q76.60 5.90 76.60 5.98L76.60 5.98L76.60 7.74L76.60 7.74Q76.60 7.82 76.68 7.82L76.68 7.82L77.67 7.82L77.67 7.82Q77.75 7.82 77.81 7.88L77.81 7.88L77.81 7.88Q77.86 7.94 77.86 8.02L77.86 8.02L77.86 8.94ZM85.50 12.42L85.50 12.42Q85.50 12.50 85.45 12.55L85.45 12.55L85.45 12.55Q85.39 12.61 85.31 12.61L85.31 12.61L81.76 12.61L81.76 12.61Q81.68 12.61 81.68 12.69L81.68 12.69L81.68 13.39L81.68 13.39Q81.68 13.90 81.95 14.22L81.95 14.22L81.95 14.22Q82.22 14.54 82.66 14.54L82.66 14.54L82.66 14.54Q83.02 14.54 83.28 14.30L83.28 14.30L83.28 14.30Q83.54 14.06 83.63 13.70L83.63 13.70L83.63 13.70Q83.68 13.52 83.84 13.54L83.84 13.54L85.28 13.63L85.28 13.63Q85.47 13.66 85.46 13.84L85.46 13.84L85.46 13.84Q85.33 14.93 84.62 15.53L84.62 15.53L84.62 15.53Q83.90 16.13 82.66 16.13L82.66 16.13L82.66 16.13Q81.34 16.13 80.58 15.43L80.58 15.43L80.58 15.43Q79.82 14.74 79.82 13.54L79.82 13.54L79.82 10.29L79.82 10.29Q79.82 9.12 80.58 8.41L80.58 8.41L80.58 8.41Q81.34 7.70 82.66 7.70L82.66 7.70L82.66 7.70Q83.97 7.70 84.74 8.41L84.74 8.41L84.74 8.41Q85.50 9.12 85.50 10.29L85.50 10.29L85.50 12.42ZM82.66 9.30L82.66 9.30Q82.22 9.30 81.95 9.62L81.95 9.62L81.95 9.62Q81.68 9.94 81.68 10.43L81.68 10.43L81.68 11.14L81.68 11.14Q81.68 11.22 81.76 11.22L81.76 11.22L83.57 11.22L83.57 11.22Q83.65 11.22 83.65 11.14L83.65 11.14L83.65 10.43L83.65 10.43Q83.65 9.92 83.38 9.61L83.38 9.61L83.38 9.61Q83.10 9.30 82.66 9.30L82.66 9.30ZM91.43 8.02L91.43 8.02Q91.43 7.94 91.49 7.88L91.49 7.88L91.49 7.88Q91.54 7.82 91.62 7.82L91.62 7.82L93.10 7.82L93.10 7.82Q93.18 7.82 93.23 7.88L93.23 7.88L93.23 7.88Q93.29 7.94 93.29 8.02L93.29 8.02L93.29 15.70L93.29 15.70Q93.29 17.42 92.50 18.36L92.50 18.36L92.50 18.36Q91.72 19.30 89.70 19.30L89.70 19.30L89.70 19.30Q89.35 19.30 89.18 19.28L89.18 19.28L89.18 19.28Q88.98 19.26 88.98 19.07L88.98 19.07L88.98 17.84L88.98 17.84Q88.98 17.63 89.19 17.66L89.19 17.66L89.19 17.66Q90.10 17.68 90.59 17.44L90.59 17.44L90.59 17.44Q91.08 17.20 91.26 16.74L91.26 16.74L91.26 16.74Q91.43 16.27 91.43 15.52L91.43 15.52L91.43 15.34L91.43 15.34Q91.43 15.30 91.40 15.29L91.40 15.29L91.40 15.29Q91.37 15.28 91.34 15.33L91.34 15.33L91.34 15.33Q90.81 16.02 89.83 16.02L89.83 16.02L89.83 16.02Q88.76 16.02 88.20 15.32L88.20 15.32L88.20 15.32Q87.64 14.62 87.64 13.42L87.64 13.42L87.64 10.29L87.64 10.29Q87.64 9.06 88.21 8.38L88.21 8.38L88.21 8.38Q88.78 7.70 89.83 7.70L89.83 7.70L89.83 7.70Q90.81 7.70 91.34 8.38L91.34 8.38L91.34 8.38Q91.37 8.43 91.40 8.42L91.40 8.42L91.40 8.42Q91.43 8.42 91.43 8.37L91.43 8.37L91.43 8.02ZM90.47 14.42L90.47 14.42Q90.90 14.42 91.17 14.10L91.17 14.10L91.17 14.10Q91.43 13.79 91.43 13.30L91.43 13.30L91.43 10.43L91.43 10.43Q91.43 9.92 91.17 9.61L91.17 9.61L91.17 9.61Q90.90 9.30 90.47 9.30L90.47 9.30L90.47 9.30Q90.04 9.30 89.77 9.62L89.77 9.62L89.77 9.62Q89.50 9.94 89.50 10.43L89.50 10.43L89.50 13.30L89.50 13.30Q89.50 13.79 89.77 14.10L89.77 14.10L89.77 14.10Q90.04 14.42 90.47 14.42L90.47 14.42ZM99.01 7.73L99.01 7.73Q99.44 7.73 99.68 7.89L99.68 7.89L99.68 7.89Q99.81 7.97 99.78 8.13L99.78 8.13L99.52 9.62L99.52 9.62Q99.50 9.81 99.30 9.73L99.30 9.73L99.30 9.73Q99.07 9.66 98.88 9.66L98.88 9.66L98.88 9.66Q98.69 9.66 98.53 9.71L98.53 9.71L98.53 9.71Q98.08 9.78 97.80 10.22L97.80 10.22L97.80 10.22Q97.52 10.66 97.52 11.26L97.52 11.26L97.52 15.81L97.52 15.81Q97.52 15.89 97.46 15.94L97.46 15.94L97.46 15.94Q97.41 16 97.33 16L97.33 16L95.86 16L95.86 16Q95.78 16 95.72 15.94L95.72 15.94L95.72 15.94Q95.66 15.89 95.66 15.81L95.66 15.81L95.66 8.02L95.66 8.02Q95.66 7.94 95.72 7.88L95.72 7.88L95.72 7.88Q95.78 7.82 95.86 7.82L95.86 7.82L97.33 7.82L97.33 7.82Q97.41 7.82 97.46 7.88L97.46 7.88L97.46 7.88Q97.52 7.94 97.52 8.02L97.52 8.02L97.52 8.75L97.52 8.75Q97.52 8.82 97.55 8.82L97.55 8.82L97.55 8.82Q97.58 8.83 97.60 8.77L97.60 8.77L97.60 8.77Q98.03 7.73 99.01 7.73L99.01 7.73ZM102.68 6.80L102.68 6.80Q102.18 6.80 101.87 6.48L101.87 6.48L101.87 6.48Q101.56 6.16 101.56 5.65L101.56 5.65L101.56 5.65Q101.56 5.14 101.87 4.82L101.87 4.82L101.87 4.82Q102.18 4.50 102.68 4.50L102.68 4.50L102.68 4.50Q103.18 4.50 103.49 4.82L103.49 4.82L103.49 4.82Q103.80 5.14 103.80 5.65L103.80 5.65L103.80 5.65Q103.80 6.16 103.49 6.48L103.49 6.48L103.49 6.48Q103.18 6.80 102.68 6.80L102.68 6.80ZM101.94 16L101.94 16Q101.86 16 101.81 15.94L101.81 15.94L101.81 15.94Q101.75 15.89 101.75 15.81L101.75 15.81L101.75 8.02L101.75 8.02Q101.75 7.94 101.81 7.88L101.81 7.88L101.81 7.88Q101.86 7.82 101.94 7.82L101.94 7.82L103.42 7.82L103.42 7.82Q103.50 7.82 103.55 7.88L103.55 7.88L103.55 7.88Q103.61 7.94 103.61 8.02L103.61 8.02L103.61 15.81L103.61 15.81Q103.61 15.89 103.55 15.94L103.55 15.94L103.55 15.94Q103.50 16 103.42 16L103.42 16L101.94 16ZM109.58 8.94L109.58 8.94Q109.58 9.02 109.53 9.08L109.53 9.08L109.53 9.08Q109.47 9.14 109.39 9.14L109.39 9.14L108.40 9.14L108.40 9.14Q108.32 9.14 108.32 9.22L108.32 9.22L108.32 13.41L108.32 13.41Q108.32 13.97 108.53 14.18L108.53 14.18L108.53 14.18Q108.74 14.40 109.15 14.38L109.15 14.38L109.26 14.38L109.26 14.38Q109.34 14.38 109.40 14.44L109.40 14.44L109.40 14.44Q109.46 14.50 109.46 14.58L109.46 14.58L109.46 15.81L109.46 15.81Q109.46 15.89 109.40 15.94L109.40 15.94L109.40 15.94Q109.34 16 109.26 16L109.26 16L108.72 16L108.72 16Q107.63 16 107.08 15.60L107.08 15.60L107.08 15.60Q106.53 15.20 106.53 14.10L106.53 14.10L106.53 9.22L106.53 9.22Q106.53 9.14 106.45 9.14L106.45 9.14L105.89 9.14L105.89 9.14Q105.81 9.14 105.75 9.08L105.75 9.08L105.75 9.08Q105.70 9.02 105.70 8.94L105.70 8.94L105.70 8.02L105.70 8.02Q105.70 7.94 105.75 7.88L105.75 7.88L105.75 7.88Q105.81 7.82 105.89 7.82L105.89 7.82L106.45 7.82L106.45 7.82Q106.53 7.82 106.53 7.74L106.53 7.74L106.53 5.98L106.53 5.98Q106.53 5.90 106.58 5.85L106.58 5.85L106.58 5.85Q106.64 5.79 106.72 5.79L106.72 5.79L108.13 5.79L108.13 5.79Q108.21 5.79 108.26 5.85L108.26 5.85L108.26 5.85Q108.32 5.90 108.32 5.98L108.32 5.98L108.32 7.74L108.32 7.74Q108.32 7.82 108.40 7.82L108.40 7.82L109.39 7.82L109.39 7.82Q109.47 7.82 109.53 7.88L109.53 7.88L109.53 7.88Q109.58 7.94 109.58 8.02L109.58 8.02L109.58 8.94ZM111.58 19.18L111.58 19.18Q111.48 19.18 111.48 18.99L111.48 18.99L111.48 17.84L111.48 17.84Q111.48 17.65 111.56 17.65L111.56 17.65L111.64 17.65L111.64 17.65Q112.17 17.65 112.47 17.52L112.47 17.52L112.47 17.52Q112.78 17.39 112.96 17.05L112.96 17.05L112.96 17.05Q113.14 16.70 113.22 16.05L113.22 16.05L113.21 15.95L111.19 8.03L111.19 7.97L111.19 7.97Q111.19 7.82 111.37 7.82L111.37 7.82L112.94 7.82L112.94 7.82Q113.13 7.82 113.14 8L113.14 8L114.12 13.28L114.12 13.28Q114.14 13.33 114.17 13.33L114.17 13.33L114.17 13.33Q114.20 13.33 114.22 13.28L114.22 13.28L115.16 8L115.16 8Q115.18 7.82 115.37 7.82L115.37 7.82L116.95 7.84L116.95 7.84Q117.18 7.84 117.13 8.05L117.13 8.05L114.98 16.45L114.98 16.45Q114.68 17.58 114.34 18.14L114.34 18.14L114.34 18.14Q114.01 18.70 113.40 18.94L113.40 18.94L113.40 18.94Q112.79 19.18 111.67 19.18L111.67 19.18L111.58 19.18ZM119.10 17.46L119.10 17.46Q119.01 17.46 118.95 17.40L118.95 17.40L118.95 17.40Q118.90 17.34 118.91 17.25L118.91 17.25L119.33 13.66L119.33 13.66Q119.34 13.49 119.52 13.49L119.52 13.49L120.80 13.49L120.80 13.49Q121.01 13.49 120.96 13.70L120.96 13.70L120.18 17.28L120.18 17.28Q120.14 17.46 119.97 17.46L119.97 17.46L119.10 17.46ZM130.26 7.70L130.26 7.70Q131.52 7.70 132.30 8.43L132.30 8.43L132.30 8.43Q133.09 9.17 133.09 10.37L133.09 10.37L133.09 15.81L133.09 15.81Q133.09 15.89 133.03 15.94L133.03 15.94L133.03 15.94Q132.98 16 132.90 16L132.90 16L131.42 16L131.42 16Q131.34 16 131.29 15.94L131.29 15.94L131.29 15.94Q131.23 15.89 131.23 15.81L131.23 15.81L131.23 15.52L131.23 15.52Q131.23 15.47 131.20 15.46L131.20 15.46L131.20 15.46Q131.17 15.44 131.14 15.49L131.14 15.49L131.14 15.49Q130.56 16.13 129.52 16.13L129.52 16.13L129.52 16.13Q128.61 16.13 127.91 15.61L127.91 15.61L127.91 15.61Q127.22 15.09 127.22 13.71L127.22 13.71L127.22 13.71Q127.22 12.27 128.06 11.66L128.06 11.66L128.06 11.66Q128.90 11.06 130.34 11.06L130.34 11.06L131.15 11.06L131.15 11.06Q131.23 11.06 131.23 10.98L131.23 10.98L131.23 10.56L131.23 10.56Q131.23 9.98 130.94 9.64L130.94 9.64L130.94 9.64Q130.66 9.30 130.22 9.30L130.22 9.30L130.22 9.30Q129.89 9.30 129.66 9.51L129.66 9.51L129.66 9.51Q129.44 9.73 129.39 10.10L129.39 10.10L129.39 10.10Q129.38 10.29 129.18 10.29L129.18 10.29L127.63 10.29L127.63 10.29Q127.44 10.29 127.46 10.10L127.46 10.10L127.46 10.10Q127.54 9.01 128.31 8.35L128.31 8.35L128.31 8.35Q129.09 7.70 130.26 7.70L130.26 7.70ZM130.03 14.59L130.03 14.59Q130.51 14.59 130.87 14.29L130.87 14.29L130.87 14.29Q131.23 13.98 131.23 13.44L131.23 13.44L131.23 12.53L131.23 12.53Q131.23 12.45 131.15 12.45L131.15 12.45L130.34 12.45L130.34 12.45Q129.78 12.45 129.45 12.74L129.45 12.74L129.45 12.74Q129.12 13.04 129.12 13.60L129.12 13.60L129.12 13.60Q129.12 14.10 129.38 14.34L129.38 14.34L129.38 14.34Q129.63 14.59 130.03 14.59L130.03 14.59ZM138.94 7.70L138.94 7.70Q139.98 7.70 140.51 8.39L140.51 8.39L140.51 8.39Q141.05 9.09 141.05 10.37L141.05 10.37L141.05 15.81L141.05 15.81Q141.05 15.89 140.99 15.94L140.99 15.94L140.99 15.94Q140.94 16 140.86 16L140.86 16L139.38 16L139.38 16Q139.30 16 139.25 15.94L139.25 15.94L139.25 15.94Q139.19 15.89 139.19 15.81L139.19 15.81L139.19 10.51L139.19 10.51Q139.19 9.94 138.95 9.62L138.95 9.62L138.95 9.62Q138.71 9.30 138.26 9.30L138.26 9.30L138.26 9.30Q137.80 9.30 137.54 9.63L137.54 9.63L137.54 9.63Q137.29 9.97 137.29 10.56L137.29 10.56L137.29 15.81L137.29 15.81Q137.29 15.89 137.23 15.94L137.23 15.94L137.23 15.94Q137.18 16 137.10 16L137.10 16L135.62 16L135.62 16Q135.54 16 135.49 15.94L135.49 15.94L135.49 15.94Q135.43 15.89 135.43 15.81L135.43 15.81L135.43 8.02L135.43 8.02Q135.43 7.94 135.49 7.88L135.49 7.88L135.49 7.88Q135.54 7.82 135.62 7.82L135.62 7.82L137.10 7.82L137.10 7.82Q137.18 7.82 137.23 7.88L137.23 7.88L137.23 7.88Q137.29 7.94 137.29 8.02L137.29 8.02L137.29 8.34L137.29 8.34Q137.29 8.38 137.33 8.39L137.33 8.39L137.33 8.39Q137.37 8.40 137.42 8.34L137.42 8.34L137.42 8.34Q137.96 7.70 138.94 7.70L138.94 7.70ZM147.12 4.99L147.12 4.99Q147.12 4.91 147.18 4.86L147.18 4.86L147.18 4.86Q147.23 4.80 147.31 4.80L147.31 4.80L148.78 4.80L148.78 4.80Q148.86 4.80 148.92 4.86L148.92 4.86L148.92 4.86Q148.98 4.91 148.98 4.99L148.98 4.99L148.98 15.81L148.98 15.81Q148.98 15.89 148.92 15.94L148.92 15.94L148.92 15.94Q148.86 16 148.78 16L148.78 16L147.31 16L147.31 16Q147.23 16 147.18 15.94L147.18 15.94L147.18 15.94Q147.12 15.89 147.12 15.81L147.12 15.81L147.12 15.55L147.12 15.55Q147.12 15.50 147.09 15.50L147.09 15.50L147.09 15.50Q147.06 15.49 147.02 15.52L147.02 15.52L147.02 15.52Q146.46 16.13 145.55 16.13L145.55 16.13L145.55 16.13Q144.51 16.13 143.94 15.42L143.94 15.42L143.94 15.42Q143.36 14.72 143.33 13.54L143.33 13.54L143.33 10.27L143.33 10.27Q143.36 9.07 143.94 8.38L143.94 8.38L143.94 8.38Q144.53 7.70 145.55 7.70L145.55 7.70L145.55 7.70Q146.46 7.70 147.02 8.30L147.02 8.30L147.02 8.30Q147.06 8.34 147.09 8.33L147.09 8.33L147.09 8.33Q147.12 8.32 147.12 8.27L147.12 8.27L147.12 4.99ZM146.14 14.53L146.14 14.53Q146.58 14.53 146.85 14.21L146.85 14.21L146.85 14.21Q147.12 13.89 147.12 13.36L147.12 13.36L147.12 10.46L147.12 10.46Q147.12 9.94 146.85 9.62L146.85 9.62L146.85 9.62Q146.58 9.30 146.14 9.30L146.14 9.30L146.14 9.30Q145.71 9.30 145.44 9.62L145.44 9.62L145.44 9.62Q145.17 9.94 145.17 10.46L145.17 10.46L145.17 13.36L145.17 13.36Q145.17 13.87 145.44 14.20L145.44 14.20L145.44 14.20Q145.71 14.53 146.14 14.53L146.14 14.53ZM158.54 4.67L158.54 4.67Q159.89 4.67 160.70 5.54L160.70 5.54L160.70 5.54Q161.52 6.40 161.52 7.79L161.52 7.79L161.52 13.01L161.52 13.01Q161.52 14.11 160.99 14.90L160.99 14.90L160.99 14.90Q160.46 15.70 159.54 15.98L159.54 15.98L159.54 15.98Q159.47 16 159.47 16.06L159.47 16.06L159.47 17.47L159.47 17.47Q159.47 17.55 159.42 17.61L159.42 17.61L159.42 17.61Q159.36 17.66 159.28 17.66L159.28 17.66L157.81 17.66L157.81 17.66Q157.73 17.66 157.67 17.61L157.67 17.61L157.67 17.61Q157.62 17.55 157.62 17.47L157.62 17.47L157.62 16.06L157.62 16.06Q157.62 16 157.55 15.98L157.55 15.98L157.55 15.98Q156.64 15.68 156.11 14.90L156.11 14.90L156.11 14.90Q155.58 14.11 155.58 13.01L155.58 13.01L155.58 7.79L155.58 7.79Q155.58 6.40 156.40 5.54L156.40 5.54L156.40 5.54Q157.22 4.67 158.54 4.67L158.54 4.67ZM159.66 13.20L159.66 7.60L159.66 7.60Q159.66 7.01 159.35 6.64L159.35 6.64L159.35 6.64Q159.04 6.27 158.54 6.27L158.54 6.27L158.54 6.27Q158.05 6.27 157.74 6.64L157.74 6.64L157.74 6.64Q157.44 7.01 157.44 7.60L157.44 7.60L157.44 13.20L157.44 13.20Q157.44 13.79 157.74 14.16L157.74 14.16L157.74 14.16Q158.05 14.53 158.54 14.53L158.54 14.53L158.54 14.53Q159.04 14.53 159.35 14.16L159.35 14.16L159.35 14.16Q159.66 13.79 159.66 13.20L159.66 13.20ZM167.62 8.02L167.62 8.02Q167.62 7.94 167.68 7.88L167.68 7.88L167.68 7.88Q167.74 7.82 167.82 7.82L167.82 7.82L169.29 7.82L169.29 7.82Q169.37 7.82 169.42 7.88L169.42 7.88L169.42 7.88Q169.48 7.94 169.48 8.02L169.48 8.02L169.48 15.81L169.48 15.81Q169.48 15.89 169.42 15.94L169.42 15.94L169.42 15.94Q169.37 16 169.29 16L169.29 16L167.82 16L167.82 16Q167.74 16 167.68 15.94L167.68 15.94L167.68 15.94Q167.62 15.89 167.62 15.81L167.62 15.81L167.62 15.46L167.62 15.46Q167.62 15.41 167.59 15.39L167.59 15.39L167.59 15.39Q167.56 15.38 167.53 15.42L167.53 15.42L167.53 15.42Q167.06 16.11 166.04 16.11L166.04 16.11L166.04 16.11Q165.06 16.11 164.46 15.53L164.46 15.53L164.46 15.53Q163.86 14.94 163.86 13.73L163.86 13.73L163.86 8.02L163.86 8.02Q163.86 7.94 163.92 7.88L163.92 7.88L163.92 7.88Q163.98 7.82 164.06 7.82L164.06 7.82L165.53 7.82L165.53 7.82Q165.61 7.82 165.66 7.88L165.66 7.88L165.66 7.88Q165.72 7.94 165.72 8.02L165.72 8.02L165.72 13.33L165.72 13.33Q165.72 14.53 166.65 14.53L166.65 14.53L166.65 14.53Q167.11 14.53 167.37 14.18L167.37 14.18L167.37 14.18Q167.62 13.84 167.62 13.25L167.62 13.25L167.62 8.02ZM174.69 7.70L174.69 7.70Q175.95 7.70 176.74 8.43L176.74 8.43L176.74 8.43Q177.52 9.17 177.52 10.37L177.52 10.37L177.52 15.81L177.52 15.81Q177.52 15.89 177.46 15.94L177.46 15.94L177.46 15.94Q177.41 16 177.33 16L177.33 16L175.86 16L175.86 16Q175.78 16 175.72 15.94L175.72 15.94L175.72 15.94Q175.66 15.89 175.66 15.81L175.66 15.81L175.66 15.52L175.66 15.52Q175.66 15.47 175.63 15.46L175.63 15.46L175.63 15.46Q175.60 15.44 175.57 15.49L175.57 15.49L175.57 15.49Q174.99 16.13 173.95 16.13L173.95 16.13L173.95 16.13Q173.04 16.13 172.34 15.61L172.34 15.61L172.34 15.61Q171.65 15.09 171.65 13.71L171.65 13.71L171.65 13.71Q171.65 12.27 172.49 11.66L172.49 11.66L172.49 11.66Q173.33 11.06 174.77 11.06L174.77 11.06L175.58 11.06L175.58 11.06Q175.66 11.06 175.66 10.98L175.66 10.98L175.66 10.56L175.66 10.56Q175.66 9.98 175.38 9.64L175.38 9.64L175.38 9.64Q175.09 9.30 174.66 9.30L174.66 9.30L174.66 9.30Q174.32 9.30 174.10 9.51L174.10 9.51L174.10 9.51Q173.87 9.73 173.82 10.10L173.82 10.10L173.82 10.10Q173.81 10.29 173.62 10.29L173.62 10.29L172.06 10.29L172.06 10.29Q171.87 10.29 171.89 10.10L171.89 10.10L171.89 10.10Q171.97 9.01 172.74 8.35L172.74 8.35L172.74 8.35Q173.52 7.70 174.69 7.70L174.69 7.70ZM174.46 14.59L174.46 14.59Q174.94 14.59 175.30 14.29L175.30 14.29L175.30 14.29Q175.66 13.98 175.66 13.44L175.66 13.44L175.66 12.53L175.66 12.53Q175.66 12.45 175.58 12.45L175.58 12.45L174.77 12.45L174.77 12.45Q174.21 12.45 173.88 12.74L173.88 12.74L173.88 12.74Q173.55 13.04 173.55 13.60L173.55 13.60L173.55 13.60Q173.55 14.10 173.81 14.34L173.81 14.34L173.81 14.34Q174.06 14.59 174.46 14.59L174.46 14.59ZM179.99 16L179.99 16Q179.91 16 179.86 15.94L179.86 15.94L179.86 15.94Q179.80 15.89 179.80 15.81L179.80 15.81L179.80 4.99L179.80 4.99Q179.80 4.91 179.86 4.86L179.86 4.86L179.86 4.86Q179.91 4.80 179.99 4.80L179.99 4.80L181.46 4.80L181.46 4.80Q181.54 4.80 181.60 4.86L181.60 4.86L181.60 4.86Q181.66 4.91 181.66 4.99L181.66 4.99L181.66 15.81L181.66 15.81Q181.66 15.89 181.60 15.94L181.60 15.94L181.60 15.94Q181.54 16 181.46 16L181.46 16L179.99 16ZM185.06 6.80L185.06 6.80Q184.56 6.80 184.25 6.48L184.25 6.48L184.25 6.48Q183.94 6.16 183.94 5.65L183.94 5.65L183.94 5.65Q183.94 5.14 184.25 4.82L184.25 4.82L184.25 4.82Q184.56 4.50 185.06 4.50L185.06 4.50L185.06 4.50Q185.55 4.50 185.86 4.82L185.86 4.82L185.86 4.82Q186.18 5.14 186.18 5.65L186.18 5.65L186.18 5.65Q186.18 6.16 185.86 6.48L185.86 6.48L185.86 6.48Q185.55 6.80 185.06 6.80L185.06 6.80ZM184.32 16L184.32 16Q184.24 16 184.18 15.94L184.18 15.94L184.18 15.94Q184.13 15.89 184.13 15.81L184.13 15.81L184.13 8.02L184.13 8.02Q184.13 7.94 184.18 7.88L184.18 7.88L184.18 7.88Q184.24 7.82 184.32 7.82L184.32 7.82L185.79 7.82L185.79 7.82Q185.87 7.82 185.93 7.88L185.93 7.88L185.93 7.88Q185.98 7.94 185.98 8.02L185.98 8.02L185.98 15.81L185.98 15.81Q185.98 15.89 185.93 15.94L185.93 15.94L185.93 15.94Q185.87 16 185.79 16L185.79 16L184.32 16ZM191.96 8.94L191.96 8.94Q191.96 9.02 191.90 9.08L191.90 9.08L191.90 9.08Q191.85 9.14 191.77 9.14L191.77 9.14L190.78 9.14L190.78 9.14Q190.70 9.14 190.70 9.22L190.70 9.22L190.70 13.41L190.70 13.41Q190.70 13.97 190.90 14.18L190.90 14.18L190.90 14.18Q191.11 14.40 191.53 14.38L191.53 14.38L191.64 14.38L191.64 14.38Q191.72 14.38 191.78 14.44L191.78 14.44L191.78 14.44Q191.83 14.50 191.83 14.58L191.83 14.58L191.83 15.81L191.83 15.81Q191.83 15.89 191.78 15.94L191.78 15.94L191.78 15.94Q191.72 16 191.64 16L191.64 16L191.10 16L191.10 16Q190.01 16 189.46 15.60L189.46 15.60L189.46 15.60Q188.90 15.20 188.90 14.10L188.90 14.10L188.90 9.22L188.90 9.22Q188.90 9.14 188.82 9.14L188.82 9.14L188.26 9.14L188.26 9.14Q188.18 9.14 188.13 9.08L188.13 9.08L188.13 9.08Q188.07 9.02 188.07 8.94L188.07 8.94L188.07 8.02L188.07 8.02Q188.07 7.94 188.13 7.88L188.13 7.88L188.13 7.88Q188.18 7.82 188.26 7.82L188.26 7.82L188.82 7.82L188.82 7.82Q188.90 7.82 188.90 7.74L188.90 7.74L188.90 5.98L188.90 5.98Q188.90 5.90 188.96 5.85L188.96 5.85L188.96 5.85Q189.02 5.79 189.10 5.79L189.10 5.79L190.50 5.79L190.50 5.79Q190.58 5.79 190.64 5.85L190.64 5.85L190.64 5.85Q190.70 5.90 190.70 5.98L190.70 5.98L190.70 7.74L190.70 7.74Q190.70 7.82 190.78 7.82L190.78 7.82L191.77 7.82L191.77 7.82Q191.85 7.82 191.90 7.88L191.90 7.88L191.90 7.88Q191.96 7.94 191.96 8.02L191.96 8.02L191.96 8.94ZM193.95 19.18L193.95 19.18Q193.86 19.18 193.86 18.99L193.86 18.99L193.86 17.84L193.86 17.84Q193.86 17.65 193.94 17.65L193.94 17.65L194.02 17.65L194.02 17.65Q194.54 17.65 194.85 17.52L194.85 17.52L194.85 17.52Q195.15 17.39 195.34 17.05L195.34 17.05L195.34 17.05Q195.52 16.70 195.60 16.05L195.60 16.05L195.58 15.95L193.57 8.03L193.57 7.97L193.57 7.97Q193.57 7.82 193.74 7.82L193.74 7.82L195.31 7.82L195.31 7.82Q195.50 7.82 195.52 8L195.52 8L196.50 13.28L196.50 13.28Q196.51 13.33 196.54 13.33L196.54 13.33L196.54 13.33Q196.58 13.33 196.59 13.28L196.59 13.28L197.54 8L197.54 8Q197.55 7.82 197.74 7.82L197.74 7.82L199.33 7.84L199.33 7.84Q199.55 7.84 199.50 8.05L199.50 8.05L197.36 16.45L197.36 16.45Q197.06 17.58 196.72 18.14L196.72 18.14L196.72 18.14Q196.38 18.70 195.78 18.94L195.78 18.94L195.78 18.94Q195.17 19.18 194.05 19.18L194.05 19.18L193.95 19.18ZM208.64 16.13L208.64 16.13Q207.28 16.13 206.46 15.30L206.46 15.30L206.46 15.30Q205.63 14.48 205.63 13.12L205.63 13.12L205.63 7.66L205.63 7.66Q205.63 6.29 206.46 5.48L206.46 5.48L206.46 5.48Q207.28 4.67 208.64 4.67L208.64 4.67L208.64 4.67Q210.02 4.67 210.85 5.48L210.85 5.48L210.85 5.48Q211.68 6.29 211.68 7.66L211.68 7.66L211.68 7.86L211.68 7.86Q211.68 7.94 211.62 8L211.62 8L211.62 8Q211.57 8.06 211.49 8.06L211.49 8.06L210 8.13L210 8.13Q209.81 8.13 209.81 7.94L209.81 7.94L209.81 7.54L209.81 7.54Q209.81 6.98 209.49 6.62L209.49 6.62L209.49 6.62Q209.17 6.27 208.64 6.27L208.64 6.27L208.64 6.27Q208.13 6.27 207.81 6.62L207.81 6.62L207.81 6.62Q207.49 6.98 207.49 7.54L207.49 7.54L207.49 13.26L207.49 13.26Q207.49 13.82 207.81 14.18L207.81 14.18L207.81 14.18Q208.13 14.53 208.64 14.53L208.64 14.53L208.64 14.53Q209.17 14.53 209.49 14.18L209.49 14.18L209.49 14.18Q209.81 13.82 209.81 13.26L209.81 13.26L209.81 12.86L209.81 12.86Q209.81 12.78 209.86 12.73L209.86 12.73L209.86 12.73Q209.92 12.67 210 12.67L210 12.67L211.49 12.74L211.49 12.74Q211.57 12.74 211.62 12.79L211.62 12.79L211.62 12.79Q211.68 12.85 211.68 12.93L211.68 12.93L211.68 13.12L211.68 13.12Q211.68 14.48 210.85 15.30L210.85 15.30L210.85 15.30Q210.02 16.13 208.64 16.13L208.64 16.13ZM217.35 7.73L217.35 7.73Q217.78 7.73 218.02 7.89L218.02 7.89L218.02 7.89Q218.15 7.97 218.12 8.13L218.12 8.13L217.86 9.62L217.86 9.62Q217.85 9.81 217.64 9.73L217.64 9.73L217.64 9.73Q217.42 9.66 217.22 9.66L217.22 9.66L217.22 9.66Q217.03 9.66 216.87 9.71L216.87 9.71L216.87 9.71Q216.42 9.78 216.14 10.22L216.14 10.22L216.14 10.22Q215.86 10.66 215.86 11.26L215.86 11.26L215.86 15.81L215.86 15.81Q215.86 15.89 215.81 15.94L215.81 15.94L215.81 15.94Q215.75 16 215.67 16L215.67 16L214.20 16L214.20 16Q214.12 16 214.06 15.94L214.06 15.94L214.06 15.94Q214.01 15.89 214.01 15.81L214.01 15.81L214.01 8.02L214.01 8.02Q214.01 7.94 214.06 7.88L214.06 7.88L214.06 7.88Q214.12 7.82 214.20 7.82L214.20 7.82L215.67 7.82L215.67 7.82Q215.75 7.82 215.81 7.88L215.81 7.88L215.81 7.88Q215.86 7.94 215.86 8.02L215.86 8.02L215.86 8.75L215.86 8.75Q215.86 8.82 215.90 8.82L215.90 8.82L215.90 8.82Q215.93 8.83 215.94 8.77L215.94 8.77L215.94 8.77Q216.38 7.73 217.35 7.73L217.35 7.73ZM222.77 7.70L222.77 7.70Q224.03 7.70 224.82 8.43L224.82 8.43L224.82 8.43Q225.60 9.17 225.60 10.37L225.60 10.37L225.60 15.81L225.60 15.81Q225.60 15.89 225.54 15.94L225.54 15.94L225.54 15.94Q225.49 16 225.41 16L225.41 16L223.94 16L223.94 16Q223.86 16 223.80 15.94L223.80 15.94L223.80 15.94Q223.74 15.89 223.74 15.81L223.74 15.81L223.74 15.52L223.74 15.52Q223.74 15.47 223.71 15.46L223.71 15.46L223.71 15.46Q223.68 15.44 223.65 15.49L223.65 15.49L223.65 15.49Q223.07 16.13 222.03 16.13L222.03 16.13L222.03 16.13Q221.12 16.13 220.42 15.61L220.42 15.61L220.42 15.61Q219.73 15.09 219.73 13.71L219.73 13.71L219.73 13.71Q219.73 12.27 220.57 11.66L220.57 11.66L220.57 11.66Q221.41 11.06 222.85 11.06L222.85 11.06L223.66 11.06L223.66 11.06Q223.74 11.06 223.74 10.98L223.74 10.98L223.74 10.56L223.74 10.56Q223.74 9.98 223.46 9.64L223.46 9.64L223.46 9.64Q223.17 9.30 222.74 9.30L222.74 9.30L222.74 9.30Q222.40 9.30 222.18 9.51L222.18 9.51L222.18 9.51Q221.95 9.73 221.90 10.10L221.90 10.10L221.90 10.10Q221.89 10.29 221.70 10.29L221.70 10.29L220.14 10.29L220.14 10.29Q219.95 10.29 219.97 10.10L219.97 10.10L219.97 10.10Q220.05 9.01 220.82 8.35L220.82 8.35L220.82 8.35Q221.60 7.70 222.77 7.70L222.77 7.70ZM222.54 14.59L222.54 14.59Q223.02 14.59 223.38 14.29L223.38 14.29L223.38 14.29Q223.74 13.98 223.74 13.44L223.74 13.44L223.74 12.53L223.74 12.53Q223.74 12.45 223.66 12.45L223.66 12.45L222.85 12.45L222.85 12.45Q222.29 12.45 221.96 12.74L221.96 12.74L221.96 12.74Q221.63 13.04 221.63 13.60L221.63 13.60L221.63 13.60Q221.63 14.10 221.89 14.34L221.89 14.34L221.89 14.34Q222.14 14.59 222.54 14.59L222.54 14.59ZM231.26 7.82L231.26 7.82Q231.34 7.82 231.39 7.88L231.39 7.88L231.39 7.88Q231.45 7.94 231.45 8.02L231.45 8.02L231.45 8.96L231.45 8.96Q231.45 9.04 231.39 9.10L231.39 9.10L231.39 9.10Q231.34 9.15 231.26 9.15L231.26 9.15L230.26 9.15L230.26 9.15Q230.18 9.15 230.18 9.23L230.18 9.23L230.18 15.81L230.18 15.81Q230.18 15.89 230.13 15.94L230.13 15.94L230.13 15.94Q230.07 16 229.99 16L229.99 16L228.54 16L228.54 16Q228.46 16 228.40 15.94L228.40 15.94L228.40 15.94Q228.34 15.89 228.34 15.81L228.34 15.81L228.34 9.23L228.34 9.23Q228.34 9.15 228.26 9.15L228.26 9.15L227.75 9.15L227.75 9.15Q227.67 9.15 227.62 9.10L227.62 9.10L227.62 9.10Q227.56 9.04 227.56 8.96L227.56 8.96L227.56 8.02L227.56 8.02Q227.56 7.94 227.62 7.88L227.62 7.88L227.62 7.88Q227.67 7.82 227.75 7.82L227.75 7.82L228.26 7.82L228.26 7.82Q228.34 7.82 228.34 7.74L228.34 7.74L228.34 7.34L228.34 7.34Q228.34 5.90 229.00 5.31L229.00 5.31L229.00 5.31Q229.66 4.72 231.10 4.74L231.10 4.74L231.22 4.74L231.22 4.74Q231.30 4.74 231.36 4.79L231.36 4.79L231.36 4.79Q231.42 4.85 231.42 4.93L231.42 4.93L231.38 6.02L231.38 6.02Q231.38 6.21 231.26 6.21L231.26 6.21L231.11 6.21L231.11 6.21Q230.63 6.22 230.41 6.52L230.41 6.52L230.41 6.52Q230.18 6.82 230.18 7.42L230.18 7.42L230.18 7.74L230.18 7.74Q230.18 7.82 230.26 7.82L230.26 7.82L231.26 7.82ZM237.01 8.94L237.01 8.94Q237.01 9.02 236.95 9.08L236.95 9.08L236.95 9.08Q236.90 9.14 236.82 9.14L236.82 9.14L235.82 9.14L235.82 9.14Q235.74 9.14 235.74 9.22L235.74 9.22L235.74 13.41L235.74 13.41Q235.74 13.97 235.95 14.18L235.95 14.18L235.95 14.18Q236.16 14.40 236.58 14.38L236.58 14.38L236.69 14.38L236.69 14.38Q236.77 14.38 236.82 14.44L236.82 14.44L236.82 14.44Q236.88 14.50 236.88 14.58L236.88 14.58L236.88 15.81L236.88 15.81Q236.88 15.89 236.82 15.94L236.82 15.94L236.82 15.94Q236.77 16 236.69 16L236.69 16L236.14 16L236.14 16Q235.06 16 234.50 15.60L234.50 15.60L234.50 15.60Q233.95 15.20 233.95 14.10L233.95 14.10L233.95 9.22L233.95 9.22Q233.95 9.14 233.87 9.14L233.87 9.14L233.31 9.14L233.31 9.14Q233.23 9.14 233.18 9.08L233.18 9.08L233.18 9.08Q233.12 9.02 233.12 8.94L233.12 8.94L233.12 8.02L233.12 8.02Q233.12 7.94 233.18 7.88L233.18 7.88L233.18 7.88Q233.23 7.82 233.31 7.82L233.31 7.82L233.87 7.82L233.87 7.82Q233.95 7.82 233.95 7.74L233.95 7.74L233.95 5.98L233.95 5.98Q233.95 5.90 234.01 5.85L234.01 5.85L234.01 5.85Q234.06 5.79 234.14 5.79L234.14 5.79L235.55 5.79L235.55 5.79Q235.63 5.79 235.69 5.85L235.69 5.85L235.69 5.85Q235.74 5.90 235.74 5.98L235.74 5.98L235.74 7.74L235.74 7.74Q235.74 7.82 235.82 7.82L235.82 7.82L236.82 7.82L236.82 7.82Q236.90 7.82 236.95 7.88L236.95 7.88L236.95 7.88Q237.01 7.94 237.01 8.02L237.01 8.02L237.01 8.94ZM241.61 16.10L241.61 16.10Q240.34 16.10 239.59 15.49L239.59 15.49L239.59 15.49Q238.84 14.88 238.84 13.84L238.84 13.84L238.84 13.73L238.84 13.73Q238.84 13.65 238.90 13.59L238.90 13.59L238.90 13.59Q238.95 13.54 239.03 13.54L239.03 13.54L240.41 13.54L240.41 13.54Q240.60 13.54 240.60 13.66L240.60 13.66L240.60 13.81L240.60 13.81Q240.60 14.19 240.90 14.45L240.90 14.45L240.90 14.45Q241.19 14.70 241.62 14.70L241.62 14.70L241.62 14.70Q242.04 14.70 242.28 14.46L242.28 14.46L242.28 14.46Q242.52 14.22 242.52 13.86L242.52 13.86L242.52 13.86Q242.52 13.54 242.31 13.32L242.31 13.32L242.31 13.32Q242.10 13.10 241.86 12.99L241.86 12.99L241.86 12.99Q241.62 12.88 241 12.62L241 12.62L241 12.62Q240.09 12.27 239.50 11.73L239.50 11.73L239.50 11.73Q238.92 11.18 238.92 10.11L238.92 10.11L238.92 10.11Q238.92 8.99 239.63 8.36L239.63 8.36L239.63 8.36Q240.34 7.73 241.56 7.73L241.56 7.73L241.56 7.73Q242.81 7.73 243.54 8.39L243.54 8.39L243.54 8.39Q244.26 9.06 244.26 10.18L244.26 10.18L244.26 10.18Q244.26 10.26 244.21 10.31L244.21 10.31L244.21 10.31Q244.15 10.37 244.07 10.37L244.07 10.37L242.73 10.37L242.73 10.37Q242.65 10.37 242.59 10.33L242.59 10.33L242.59 10.33Q242.54 10.29 242.54 10.22L242.54 10.22L242.54 10.08L242.54 10.08Q242.54 9.70 242.27 9.44L242.27 9.44L242.27 9.44Q242.01 9.18 241.61 9.18L241.61 9.18L241.61 9.18Q241.19 9.18 240.94 9.45L240.94 9.45L240.94 9.45Q240.70 9.71 240.70 10.08L240.70 10.08L240.70 10.08Q240.70 10.38 240.89 10.59L240.89 10.59L240.89 10.59Q241.08 10.80 241.32 10.92L241.32 10.92L241.32 10.92Q241.56 11.04 242.12 11.28L242.12 11.28L242.12 11.28Q242.79 11.55 243.25 11.82L243.25 11.82L243.25 11.82Q243.70 12.08 244.05 12.57L244.05 12.57L244.05 12.57Q244.39 13.06 244.39 13.78L244.39 13.78L244.39 13.78Q244.39 14.85 243.64 15.47L243.64 15.47L243.64 15.47Q242.89 16.10 241.61 16.10L241.61 16.10ZM253.58 7.70L253.58 7.70Q254.62 7.70 255.16 8.42L255.16 8.42L255.16 8.42Q255.70 9.15 255.70 10.45L255.70 10.45L255.70 15.81L255.70 15.81Q255.70 15.89 255.64 15.94L255.64 15.94L255.64 15.94Q255.58 16 255.50 16L255.50 16L254.05 16L254.05 16Q253.97 16 253.91 15.94L253.91 15.94L253.91 15.94Q253.86 15.89 253.86 15.81L253.86 15.81L253.86 10.58L253.86 10.58Q253.86 9.97 253.62 9.63L253.62 9.63L253.62 9.63Q253.38 9.30 252.96 9.30L252.96 9.30L252.96 9.30Q252.51 9.30 252.26 9.63L252.26 9.63L252.26 9.63Q252 9.97 252 10.56L252 10.56L252 15.81L252 15.81Q252 15.89 251.94 15.94L251.94 15.94L251.94 15.94Q251.89 16 251.81 16L251.81 16L250.35 16L250.35 16Q250.27 16 250.22 15.94L250.22 15.94L250.22 15.94Q250.16 15.89 250.16 15.81L250.16 15.81L250.16 10.58L250.16 10.58Q250.16 9.97 249.91 9.63L249.91 9.63L249.91 9.63Q249.66 9.30 249.26 9.30L249.26 9.30L249.26 9.30Q248.82 9.30 248.56 9.63L248.56 9.63L248.56 9.63Q248.30 9.97 248.30 10.56L248.30 10.56L248.30 15.81L248.30 15.81Q248.30 15.89 248.25 15.94L248.25 15.94L248.25 15.94Q248.19 16 248.11 16L248.11 16L246.66 16L246.66 16Q246.58 16 246.52 15.94L246.52 15.94L246.52 15.94Q246.46 15.89 246.46 15.81L246.46 15.81L246.46 8.02L246.46 8.02Q246.46 7.94 246.52 7.88L246.52 7.88L246.52 7.88Q246.58 7.82 246.66 7.82L246.66 7.82L248.11 7.82L248.11 7.82Q248.19 7.82 248.25 7.88L248.25 7.88L248.25 7.88Q248.30 7.94 248.30 8.02L248.30 8.02L248.30 8.27L248.30 8.27Q248.30 8.32 248.34 8.34L248.34 8.34L248.34 8.34Q248.37 8.35 248.40 8.30L248.40 8.30L248.40 8.30Q248.72 7.98 249.12 7.84L249.12 7.84L249.12 7.84Q249.52 7.70 249.90 7.70L249.90 7.70L249.90 7.70Q251.09 7.70 251.65 8.70L251.65 8.70L251.65 8.70Q251.70 8.77 251.79 8.66L251.79 8.66L251.79 8.66Q252.11 8.14 252.60 7.92L252.60 7.92L252.60 7.92Q253.09 7.70 253.58 7.70L253.58 7.70ZM260.86 7.70L260.86 7.70Q262.12 7.70 262.90 8.43L262.90 8.43L262.90 8.43Q263.69 9.17 263.69 10.37L263.69 10.37L263.69 15.81L263.69 15.81Q263.69 15.89 263.63 15.94L263.63 15.94L263.63 15.94Q263.58 16 263.50 16L263.50 16L262.02 16L262.02 16Q261.94 16 261.89 15.94L261.89 15.94L261.89 15.94Q261.83 15.89 261.83 15.81L261.83 15.81L261.83 15.52L261.83 15.52Q261.83 15.47 261.80 15.46L261.80 15.46L261.80 15.46Q261.77 15.44 261.74 15.49L261.74 15.49L261.74 15.49Q261.16 16.13 260.12 16.13L260.12 16.13L260.12 16.13Q259.21 16.13 258.51 15.61L258.51 15.61L258.51 15.61Q257.82 15.09 257.82 13.71L257.82 13.71L257.82 13.71Q257.82 12.27 258.66 11.66L258.66 11.66L258.66 11.66Q259.50 11.06 260.94 11.06L260.94 11.06L261.75 11.06L261.75 11.06Q261.83 11.06 261.83 10.98L261.83 10.98L261.83 10.56L261.83 10.56Q261.83 9.98 261.54 9.64L261.54 9.64L261.54 9.64Q261.26 9.30 260.82 9.30L260.82 9.30L260.82 9.30Q260.49 9.30 260.26 9.51L260.26 9.51L260.26 9.51Q260.04 9.73 259.99 10.10L259.99 10.10L259.99 10.10Q259.98 10.29 259.78 10.29L259.78 10.29L258.23 10.29L258.23 10.29Q258.04 10.29 258.06 10.10L258.06 10.10L258.06 10.10Q258.14 9.01 258.91 8.35L258.91 8.35L258.91 8.35Q259.69 7.70 260.86 7.70L260.86 7.70ZM260.63 14.59L260.63 14.59Q261.11 14.59 261.47 14.29L261.47 14.29L261.47 14.29Q261.83 13.98 261.83 13.44L261.83 13.44L261.83 12.53L261.83 12.53Q261.83 12.45 261.75 12.45L261.75 12.45L260.94 12.45L260.94 12.45Q260.38 12.45 260.05 12.74L260.05 12.74L260.05 12.74Q259.72 13.04 259.72 13.60L259.72 13.60L259.72 13.60Q259.72 14.10 259.98 14.34L259.98 14.34L259.98 14.34Q260.23 14.59 260.63 14.59L260.63 14.59ZM269.54 7.70L269.54 7.70Q270.58 7.70 271.11 8.39L271.11 8.39L271.11 8.39Q271.65 9.09 271.65 10.37L271.65 10.37L271.65 15.81L271.65 15.81Q271.65 15.89 271.59 15.94L271.59 15.94L271.59 15.94Q271.54 16 271.46 16L271.46 16L269.98 16L269.98 16Q269.90 16 269.85 15.94L269.85 15.94L269.85 15.94Q269.79 15.89 269.79 15.81L269.79 15.81L269.79 10.51L269.79 10.51Q269.79 9.94 269.55 9.62L269.55 9.62L269.55 9.62Q269.31 9.30 268.86 9.30L268.86 9.30L268.86 9.30Q268.40 9.30 268.14 9.63L268.14 9.63L268.14 9.63Q267.89 9.97 267.89 10.56L267.89 10.56L267.89 15.81L267.89 15.81Q267.89 15.89 267.83 15.94L267.83 15.94L267.83 15.94Q267.78 16 267.70 16L267.70 16L266.22 16L266.22 16Q266.14 16 266.09 15.94L266.09 15.94L266.09 15.94Q266.03 15.89 266.03 15.81L266.03 15.81L266.03 8.02L266.03 8.02Q266.03 7.94 266.09 7.88L266.09 7.88L266.09 7.88Q266.14 7.82 266.22 7.82L266.22 7.82L267.70 7.82L267.70 7.82Q267.78 7.82 267.83 7.88L267.83 7.88L267.83 7.88Q267.89 7.94 267.89 8.02L267.89 8.02L267.89 8.34L267.89 8.34Q267.89 8.38 267.93 8.39L267.93 8.39L267.93 8.39Q267.97 8.40 268.02 8.34L268.02 8.34L268.02 8.34Q268.56 7.70 269.54 7.70L269.54 7.70ZM276.57 16.10L276.57 16.10Q275.30 16.10 274.55 15.49L274.55 15.49L274.55 15.49Q273.80 14.88 273.80 13.84L273.80 13.84L273.80 13.73L273.80 13.73Q273.80 13.65 273.86 13.59L273.86 13.59L273.86 13.59Q273.91 13.54 273.99 13.54L273.99 13.54L275.37 13.54L275.37 13.54Q275.56 13.54 275.56 13.66L275.56 13.66L275.56 13.81L275.56 13.81Q275.56 14.19 275.86 14.45L275.86 14.45L275.86 14.45Q276.15 14.70 276.58 14.70L276.58 14.70L276.58 14.70Q277 14.70 277.24 14.46L277.24 14.46L277.24 14.46Q277.48 14.22 277.48 13.86L277.48 13.86L277.48 13.86Q277.48 13.54 277.27 13.32L277.27 13.32L277.27 13.32Q277.06 13.10 276.82 12.99L276.82 12.99L276.82 12.99Q276.58 12.88 275.96 12.62L275.96 12.62L275.96 12.62Q275.05 12.27 274.46 11.73L274.46 11.73L274.46 11.73Q273.88 11.18 273.88 10.11L273.88 10.11L273.88 10.11Q273.88 8.99 274.59 8.36L274.59 8.36L274.59 8.36Q275.30 7.73 276.52 7.73L276.52 7.73L276.52 7.73Q277.77 7.73 278.50 8.39L278.50 8.39L278.50 8.39Q279.22 9.06 279.22 10.18L279.22 10.18L279.22 10.18Q279.22 10.26 279.17 10.31L279.17 10.31L279.17 10.31Q279.11 10.37 279.03 10.37L279.03 10.37L277.69 10.37L277.69 10.37Q277.61 10.37 277.55 10.33L277.55 10.33L277.55 10.33Q277.50 10.29 277.50 10.22L277.50 10.22L277.50 10.08L277.50 10.08Q277.50 9.70 277.23 9.44L277.23 9.44L277.23 9.44Q276.97 9.18 276.57 9.18L276.57 9.18L276.57 9.18Q276.15 9.18 275.90 9.45L275.90 9.45L275.90 9.45Q275.66 9.71 275.66 10.08L275.66 10.08L275.66 10.08Q275.66 10.38 275.85 10.59L275.85 10.59L275.85 10.59Q276.04 10.80 276.28 10.92L276.28 10.92L276.28 10.92Q276.52 11.04 277.08 11.28L277.08 11.28L277.08 11.28Q277.75 11.55 278.21 11.82L278.21 11.82L278.21 11.82Q278.66 12.08 279.01 12.57L279.01 12.57L279.01 12.57Q279.35 13.06 279.35 13.78L279.35 13.78L279.35 13.78Q279.35 14.85 278.60 15.47L278.60 15.47L278.60 15.47Q277.85 16.10 276.57 16.10L276.57 16.10ZM284.93 7.70L284.93 7.70Q285.97 7.70 286.50 8.39L286.50 8.39L286.50 8.39Q287.04 9.09 287.04 10.37L287.04 10.37L287.04 15.81L287.04 15.81Q287.04 15.89 286.98 15.94L286.98 15.94L286.98 15.94Q286.93 16 286.85 16L286.85 16L285.38 16L285.38 16Q285.30 16 285.24 15.94L285.24 15.94L285.24 15.94Q285.18 15.89 285.18 15.81L285.18 15.81L285.18 10.51L285.18 10.51Q285.18 9.94 284.94 9.62L284.94 9.62L284.94 9.62Q284.70 9.30 284.26 9.30L284.26 9.30L284.26 9.30Q283.79 9.30 283.54 9.63L283.54 9.63L283.54 9.63Q283.28 9.97 283.28 10.56L283.28 10.56L283.28 15.81L283.28 15.81Q283.28 15.89 283.22 15.94L283.22 15.94L283.22 15.94Q283.17 16 283.09 16L283.09 16L281.62 16L281.62 16Q281.54 16 281.48 15.94L281.48 15.94L281.48 15.94Q281.42 15.89 281.42 15.81L281.42 15.81L281.42 4.99L281.42 4.99Q281.42 4.91 281.48 4.86L281.48 4.86L281.48 4.86Q281.54 4.80 281.62 4.80L281.62 4.80L283.09 4.80L283.09 4.80Q283.17 4.80 283.22 4.86L283.22 4.86L283.22 4.86Q283.28 4.91 283.28 4.99L283.28 4.99L283.28 8.34L283.28 8.34Q283.28 8.38 283.32 8.39L283.32 8.39L283.32 8.39Q283.36 8.40 283.41 8.34L283.41 8.34L283.41 8.34Q283.95 7.70 284.93 7.70L284.93 7.70ZM290.46 6.80L290.46 6.80Q289.96 6.80 289.65 6.48L289.65 6.48L289.65 6.48Q289.34 6.16 289.34 5.65L289.34 5.65L289.34 5.65Q289.34 5.14 289.65 4.82L289.65 4.82L289.65 4.82Q289.96 4.50 290.46 4.50L290.46 4.50L290.46 4.50Q290.95 4.50 291.26 4.82L291.26 4.82L291.26 4.82Q291.58 5.14 291.58 5.65L291.58 5.65L291.58 5.65Q291.58 6.16 291.26 6.48L291.26 6.48L291.26 6.48Q290.95 6.80 290.46 6.80L290.46 6.80ZM289.72 16L289.72 16Q289.64 16 289.58 15.94L289.58 15.94L289.58 15.94Q289.53 15.89 289.53 15.81L289.53 15.81L289.53 8.02L289.53 8.02Q289.53 7.94 289.58 7.88L289.58 7.88L289.58 7.88Q289.64 7.82 289.72 7.82L289.72 7.82L291.19 7.82L291.19 7.82Q291.27 7.82 291.33 7.88L291.33 7.88L291.33 7.88Q291.38 7.94 291.38 8.02L291.38 8.02L291.38 15.81L291.38 15.81Q291.38 15.89 291.33 15.94L291.33 15.94L291.33 15.94Q291.27 16 291.19 16L291.19 16L289.72 16ZM297.42 7.70L297.42 7.70Q298.46 7.70 299.04 8.40L299.04 8.40L299.04 8.40Q299.62 9.10 299.65 10.29L299.65 10.29L299.65 13.55L299.65 13.55Q299.62 14.75 299.03 15.44L299.03 15.44L299.03 15.44Q298.45 16.13 297.42 16.13L297.42 16.13L297.42 16.13Q296.51 16.13 295.95 15.52L295.95 15.52L295.95 15.52Q295.92 15.49 295.89 15.50L295.89 15.50L295.89 15.50Q295.86 15.50 295.86 15.55L295.86 15.55L295.86 18.83L295.86 18.83Q295.86 18.91 295.80 18.97L295.80 18.97L295.80 18.97Q295.74 19.02 295.66 19.02L295.66 19.02L294.19 19.02L294.19 19.02Q294.11 19.02 294.06 18.97L294.06 18.97L294.06 18.97Q294 18.91 294 18.83L294 18.83L294 8.02L294 8.02Q294 7.94 294.06 7.88L294.06 7.88L294.06 7.88Q294.11 7.82 294.19 7.82L294.19 7.82L295.66 7.82L295.66 7.82Q295.74 7.82 295.80 7.88L295.80 7.88L295.80 7.88Q295.86 7.94 295.86 8.02L295.86 8.02L295.86 8.27L295.86 8.27Q295.86 8.32 295.90 8.32L295.90 8.32L295.90 8.32Q295.94 8.32 295.98 8.27L295.98 8.27L295.98 8.27Q296.27 7.97 296.66 7.83L296.66 7.83L296.66 7.83Q297.04 7.70 297.42 7.70L297.42 7.70ZM297.81 10.46L297.81 10.46Q297.81 9.95 297.54 9.62L297.54 9.62L297.54 9.62Q297.26 9.30 296.83 9.30L296.83 9.30L296.83 9.30Q296.40 9.30 296.13 9.62L296.13 9.62L296.13 9.62Q295.86 9.94 295.86 10.46L295.86 10.46L295.86 13.36L295.86 13.36Q295.86 13.89 296.13 14.21L296.13 14.21L296.13 14.21Q296.40 14.53 296.83 14.53L296.83 14.53L296.83 14.53Q297.26 14.53 297.54 14.21L297.54 14.21L297.54 14.21Q297.81 13.89 297.81 13.36L297.81 13.36L297.81 10.46Z" transform="rotate(0 150.25500428676605 11.899999618530273)"></path><defs id="SvgjsDefs1020"></defs></svg></g></svg>